<svg width="2513" height="1584" viewBox="0 0 2513 1584" fill="none" xmlns="http://www.w3.org/2000/svg">
<path d="M823.716 1404.52C714.962 1372.23 610.285 1330.26 519.62 1272.41C127.976 1022.55 214.063 443.777 521.388 162.551C617.758 74.365 742.617 12.832 873.734 1.92503C1020.48 -10.282 1174.11 35.765 1284.56 134.401C1384.92 224.024 1443.87 346.999 1574.41 400.109C1725.82 461.71 1893.74 437.583 2052.44 455.832C2364.38 491.703 2568.24 765.032 2499.34 1076.93C2419.48 1438.4 2087.23 1518.85 1765.18 1531.45C1578.46 1538.75 1391.74 1520.01 1207.9 1488.26C1084.96 1467.03 951.523 1442.46 823.716 1404.52Z" fill="white"/>
<path d="M461.136 968.347C445.172 982.365 421.406 986.835 401.44 979.575C381.474 972.315 366.13 953.624 362.898 932.626C359.096 907.921 369.612 878.23 352.149 860.346C343.374 851.36 329.425 848.274 321.988 838.153C315.744 829.655 315.607 818.28 315.723 807.735C315.929 789.01 316.136 770.285 316.342 751.56C308.011 741.167 291.2 741.794 281.251 732.936C271.41 724.173 269.275 709.871 267.51 696.813C262.297 658.243 254.998 619.954 245.656 582.171C274.857 590.753 303.763 600.057 331.443 612.713C346.891 619.776 363.04 628.396 370.792 643.51C378.592 658.718 376.095 676.85 375.858 693.94C375.782 699.46 376.003 705.165 378.336 710.168C384.349 723.063 400.899 726.032 413.234 733.124C426.861 740.96 436.362 755.569 437.997 771.203C439.482 785.394 434.869 799.873 437.551 813.886C443.496 844.953 480.719 859.294 495.595 887.207C511.148 916.394 485.987 946.525 461.136 968.347Z" fill="#B3F0F6"/>
<path d="M537.761 1245.96C537.254 1245.96 536.804 1245.59 536.715 1245.08C530.859 1211.16 510.385 1119.46 474.822 1015.19C448.721 938.662 418.496 866.329 384.987 800.201C343.109 717.558 295.957 644.431 244.839 582.848C244.464 582.396 244.526 581.727 244.978 581.352C245.429 580.977 246.099 581.039 246.475 581.491C297.699 643.2 344.943 716.469 386.894 799.262C420.449 865.484 450.713 937.915 476.847 1014.54C512.45 1118.94 532.947 1210.75 538.81 1244.72C538.91 1245.29 538.522 1245.84 537.943 1245.94C537.882 1245.95 537.821 1245.96 537.761 1245.96Z" fill="#34929C"/>
<path d="M0 880.768C10.036 888.84 14.287 901.863 19.39 913.689C24.493 925.515 32.268 937.871 44.785 940.903C58.358 944.192 72.613 935.227 86.242 938.272C97.281 940.738 105.105 950.443 110.937 960.134C116.769 969.825 121.84 980.477 130.849 987.317C144.833 997.934 164.25 996.559 181.643 994.157C199.036 991.755 217.968 989.1 233.139 997.94C251.598 1008.7 258.479 1033.19 276.804 1044.17C284.599 1048.84 293.803 1050.61 302.866 1051.28C329.868 1053.29 357.472 1046.03 379.998 1031.01C378.699 1006.38 370.133 979.763 354.656 960.562C339.179 941.361 315.929 928.018 291.302 926.708C283.445 926.29 275.501 927.055 267.74 925.762C235.128 920.332 218.179 882.472 187.957 869.067C175.117 863.372 160.19 862.538 146.796 866.769C133.689 870.909 121.986 879.685 108.317 881.137C94.962 882.555 82.062 876.763 69.133 873.129C44.335 866.158 24.233 872.029 0 880.768Z" fill="#B3F0F6"/>
<path d="M528.614 1237.25C528.14 1237.25 527.708 1236.93 527.585 1236.45C512.06 1175.76 477.317 1117.61 427.112 1068.29C383.971 1025.9 328.568 989.207 262.441 959.218C191.288 926.949 109.208 902.482 4.13124 882.218C3.55424 882.107 3.17723 881.549 3.28923 880.973C3.40123 880.396 3.96124 880.023 4.53424 880.13C109.78 900.427 192.011 924.943 263.32 957.282C329.674 987.375 385.283 1024.21 428.602 1066.77C479.084 1116.37 514.024 1174.86 529.645 1235.92C529.791 1236.49 529.447 1237.07 528.878 1237.22C528.79 1237.24 528.701 1237.25 528.614 1237.25Z" fill="#34929C"/>
<path d="M570.424 879.686C554.92 882.679 538.178 878.477 525.925 868.518C513.672 858.559 506.137 843.029 505.898 827.241C505.717 815.246 509.497 803.57 513.622 792.305C515.033 788.452 516.513 784.426 516.002 780.354C515.596 777.123 513.964 774.182 512.188 771.452C505.511 761.188 496.205 752.268 492.685 740.541C486.437 719.724 500.338 697.312 495.981 676.019C494.463 668.599 490.805 661.819 488.196 654.708C479.009 629.67 483.819 599.992 500.445 579.137C523.852 588.528 539.126 613.485 539.358 638.704C539.474 651.278 536.022 664.594 541.368 675.976C544.563 682.78 550.483 687.829 556.025 692.906C565.733 701.8 575.104 711.988 578.538 724.699C583.932 744.67 573.606 766.705 580.3 786.279C586.942 805.702 608.578 817.256 614.454 836.924C616.028 842.192 616.355 847.779 615.91 853.259C615.226 861.688 612.452 870.39 606.104 875.978C596.218 884.679 583.354 877.19 570.424 879.686Z" fill="#B3F0F6"/>
<path d="M579.228 1242.48C578.682 1242.48 578.218 1242.06 578.17 1241.51C573.578 1187.55 574.837 1132.32 576.055 1078.92C577.74 1005.04 579.481 928.65 565.667 855.021C558.522 816.94 547.1 779.052 536.054 742.412C520.687 691.439 504.797 638.73 500.254 584.851C500.205 584.266 500.639 583.752 501.224 583.703C501.799 583.655 502.323 584.087 502.372 584.673C506.895 638.33 522.753 690.931 538.089 741.799C549.151 778.493 560.59 816.437 567.756 854.629C581.612 928.478 579.867 1004.98 578.18 1078.97C576.964 1132.32 575.705 1187.48 580.288 1241.33C580.338 1241.91 579.904 1242.43 579.319 1242.48C579.289 1242.48 579.259 1242.48 579.228 1242.48Z" fill="#34929C"/>
<path d="M462.273 1582.24C462.273 1582.24 364.056 1250.35 379.872 1241.57C395.688 1232.79 783.409 1232.44 783.409 1232.44C783.409 1232.44 738.947 1581.5 726.602 1582.24C714.256 1582.99 494.969 1583.76 462.273 1582.24Z" fill="#34929C"/>
<mask id="mask0_967_444" style="mask-type:luminance" maskUnits="userSpaceOnUse" x="378" y="1232" width="406" height="352">
<path d="M462.273 1582.24C462.273 1582.24 364.056 1250.35 379.872 1241.57C395.688 1232.79 783.409 1232.44 783.409 1232.44C783.409 1232.44 738.947 1581.5 726.602 1582.24C714.256 1582.99 494.969 1583.76 462.273 1582.24Z" fill="white"/>
</mask>
<g mask="url(#mask0_967_444)">
<path d="M557.998 1206.76C557.998 1206.76 444.57 1351.67 451.015 1355.54C457.46 1359.41 776.095 1425.14 775.963 1421.28C775.831 1417.41 808.364 1232.44 808.364 1232.44L557.998 1206.76Z" fill="#34929C"/>
</g>
<path d="M1490.05 1297.19H1212.62V1532.96H1490.05V1297.19Z" fill="#34929C"/>
<path d="M1581.51 1583.11H1127.85C1116.33 1583.11 1107 1573.78 1107 1562.26V1553.82C1107 1542.3 1116.33 1532.96 1127.85 1532.96H1581.51C1593.03 1532.96 1602.37 1542.3 1602.37 1553.82V1562.26C1602.37 1573.78 1593.03 1583.11 1581.51 1583.11Z" fill="#34929C"/>
<path d="M654.272 474.954C654.86 473.782 656.052 473.048 657.363 473.04C713.314 472.663 1998.59 464.11 2055.53 473.053C2077.97 476.579 2072.39 1331.14 2055.53 1363.78C2043.12 1387.79 671.416 1366.68 655.481 1363.78C635.833 1360.21 626.102 531.093 654.272 474.954Z" fill="#34929C"/>
<path d="M688.098 514.265C688.098 514.265 683.7 1243.92 701.291 1245.91C718.882 1247.9 2000.8 1255.88 2011.79 1245.91C2022.79 1235.94 2027.18 508.284 2011.79 508.284C1996.4 508.284 688.098 514.265 688.098 514.265Z" fill="#B9EDF8"/>
<mask id="mask1_967_444" style="mask-type:luminance" maskUnits="userSpaceOnUse" x="687" y="508" width="1335" height="743">
<path d="M688.098 514.265C688.098 514.265 683.7 1243.92 701.291 1245.91C718.882 1247.9 2000.8 1255.88 2011.79 1245.91C2022.79 1235.94 2027.18 508.284 2011.79 508.284C1996.4 508.284 688.098 514.265 688.098 514.265Z" fill="white"/>
</mask>
<g mask="url(#mask1_967_444)">
<path opacity="0.46" d="M1530.03 491.731L1031.84 1265.21H663.586L688.098 514.265L1530.03 491.731Z" fill="#C5E7FB"/>
</g>
<mask id="mask2_967_444" style="mask-type:luminance" maskUnits="userSpaceOnUse" x="687" y="508" width="1335" height="743">
<path d="M688.098 514.265C688.098 514.265 683.7 1243.92 701.291 1245.91C718.882 1247.9 2000.8 1255.88 2011.79 1245.91C2022.79 1235.94 2027.18 508.284 2011.79 508.284C1996.4 508.284 688.098 514.265 688.098 514.265Z" fill="white"/>
</mask>
<g mask="url(#mask2_967_444)">
<path opacity="0.46" d="M1145.57 1271.52L1624.4 487.583H1834.52L1373.2 1267.42L1145.57 1271.52Z" fill="#C5E7FB"/>
</g>
<mask id="mask3_967_444" style="mask-type:luminance" maskUnits="userSpaceOnUse" x="687" y="508" width="1335" height="743">
<path d="M688.098 514.265C688.098 514.265 683.7 1243.92 701.291 1245.91C718.882 1247.9 2000.8 1255.88 2011.79 1245.91C2022.79 1235.94 2027.18 508.284 2011.79 508.284C1996.4 508.284 688.098 514.265 688.098 514.265Z" fill="white"/>
</mask>
<g mask="url(#mask3_967_444)">
<path opacity="0.46" d="M1923.39 490.493L1459.79 1272.19L1746.96 1268.56L2055.36 700.936L2049.15 495.425L1923.39 490.493Z" fill="#B3F0F6"/>
</g>
<path d="M1364.3 1350.49C1381.5 1343.37 1389.67 1323.64 1382.55 1306.44C1375.42 1289.24 1355.7 1281.07 1338.49 1288.19C1321.29 1295.32 1313.12 1315.04 1320.24 1332.25C1327.37 1349.45 1347.09 1357.62 1364.3 1350.49Z" fill="#B6EEF7"/>
<path d="M1033.32 829.518C1034.98 821.803 1038.21 815.942 1043.04 811.943C1047.86 807.95 1053.17 805.882 1058.96 805.74C1064.75 805.604 1070.26 807.329 1075.5 810.909C1080.74 814.495 1084.46 820.007 1086.67 827.45C1086.94 845.374 1087.08 863.085 1087.08 880.589C1087.08 898.1 1087.35 915.675 1087.91 933.315C1100.03 933.315 1111.82 933.179 1123.27 932.901C1134.7 932.63 1145.66 932.488 1156.14 932.488C1163.58 934.698 1169.1 938.213 1172.68 943.033C1176.26 947.86 1177.99 952.893 1177.85 958.127C1177.71 963.367 1175.64 968.194 1171.65 972.601C1167.65 977.014 1161.79 980.045 1154.07 981.699C1143.32 981.699 1132.57 981.77 1121.82 981.906C1111.07 982.048 1100.31 981.977 1089.56 981.699C1090.11 995.488 1090.45 1010.44 1090.6 1026.57C1090.73 1042.7 1090.94 1057.65 1091.22 1071.44C1090.66 1080.54 1087.7 1087.29 1082.33 1091.7C1076.95 1096.11 1070.95 1098.32 1064.34 1098.32C1057.72 1098.32 1051.45 1096.04 1045.52 1091.49C1039.59 1086.95 1036.07 1080.26 1034.97 1071.44C1034.7 1057.38 1034.9 1042.56 1035.6 1026.98C1036.28 1011.41 1036.35 996.587 1035.8 982.527C1023.95 982.256 1011.2 981.635 997.551 980.666C983.904 979.703 970.671 977.707 957.852 974.67C945.032 971.64 933.245 967.369 922.494 961.851C911.742 956.339 903.058 949.031 896.442 939.933C890.374 931.391 886.93 922.151 886.103 912.226C885.276 902.301 886.238 892.105 888.997 881.624C891.75 871.15 895.886 860.534 901.404 849.782C906.915 839.03 912.911 828.692 919.392 818.767C925.867 808.842 932.348 799.538 938.828 790.853C945.303 782.169 951.027 774.518 955.99 767.902C967.013 753.015 978.321 738.541 989.9 724.481C1001.48 710.421 1013.06 696.225 1024.64 681.887C1030.7 676.925 1036.97 674.379 1043.45 674.236C1049.93 674.1 1055.51 675.684 1060.2 678.992C1064.89 682.3 1068.12 686.991 1069.92 693.052C1071.71 699.119 1071.23 705.871 1068.47 713.315C1059.1 724.894 1048.07 738.062 1035.39 752.807C1022.71 767.559 1010.23 782.995 997.964 799.123C985.693 815.251 974.528 831.657 964.468 848.334C954.401 865.018 947.306 881.21 943.171 896.924C941.516 902.442 942.137 907.198 945.031 911.191C947.925 915.191 952.197 918.499 957.851 921.116C963.498 923.739 970.049 925.872 977.494 927.526C984.938 929.18 992.31 930.421 999.618 931.248C1006.92 932.075 1013.68 932.696 1019.88 933.109C1026.08 933.522 1030.84 933.871 1034.15 934.143C1033.59 916.774 1033.32 899.341 1033.32 881.83C1033.32 864.326 1033.32 846.886 1033.32 829.518Z" fill="white"/>
<path d="M1233.88 1020.16C1230.3 1008.31 1226.71 993.485 1223.13 975.703C1219.55 957.921 1216.86 938.691 1215.07 918.015C1213.27 897.338 1212.65 876.112 1213.21 854.331C1213.76 832.556 1216.17 811.737 1220.44 791.887C1224.72 772.037 1231.26 753.984 1240.09 737.714C1248.91 721.45 1260.62 708.631 1275.24 699.255C1293.43 687.676 1312.18 679.405 1331.48 674.443C1350.77 669.481 1369.66 667.555 1388.13 668.653C1406.6 669.758 1424.18 673.687 1440.86 680.439C1457.54 687.198 1472.15 696.36 1484.69 707.939C1497.24 719.518 1507.3 733.443 1514.88 749.706C1522.46 765.976 1526.53 784.172 1527.08 804.293C1527.35 823.316 1528.04 843.65 1529.15 865.289C1530.25 886.935 1530.32 908.646 1529.36 930.421C1528.39 952.203 1525.56 973.222 1520.88 993.485C1516.19 1013.75 1508.47 1032.02 1497.72 1048.28C1488.62 1062.07 1476.42 1073.23 1461.12 1081.77C1445.82 1090.32 1429.28 1096.32 1411.5 1099.76C1393.71 1103.21 1375.45 1104.11 1356.7 1102.45C1337.95 1100.8 1320.38 1096.6 1303.98 1089.84C1287.57 1083.09 1273.1 1073.92 1260.56 1062.34C1248.01 1050.76 1239.12 1036.7 1233.88 1020.16ZM1302.95 746.811C1295.77 752.329 1289.36 760.393 1283.72 771.003C1278.06 781.619 1274.83 792.856 1274 804.706C1272.89 821.248 1271.79 837.995 1270.69 854.951C1269.59 871.906 1269.17 888.654 1269.45 905.195C1269.72 921.737 1271.1 938.007 1273.58 953.992C1276.07 969.984 1280.61 985.285 1287.23 999.895C1291.37 1009.55 1297.5 1017.68 1305.63 1024.29C1313.76 1030.91 1322.86 1036.01 1332.93 1039.59C1342.99 1043.18 1353.67 1045.18 1364.98 1045.59C1376.28 1046 1387.31 1044.91 1398.06 1042.28C1408.81 1039.67 1418.94 1035.46 1428.45 1029.67C1437.96 1023.88 1446.03 1016.44 1452.64 1007.34C1457.33 1001.55 1461.12 993.485 1464.02 983.146C1466.91 972.807 1469.04 961.3 1470.43 948.616C1471.8 935.939 1472.63 922.841 1472.91 909.33C1473.18 895.825 1473.18 883.006 1472.91 870.871C1472.63 858.743 1472.35 847.92 1472.08 838.408C1471.8 828.897 1471.67 821.937 1471.67 817.524C1471.94 804.291 1469.81 791.956 1465.26 780.512C1460.71 769.075 1454.44 759.08 1446.44 750.531C1438.44 741.989 1429 735.095 1418.11 729.854C1407.22 724.621 1395.51 721.584 1382.96 720.756C1370.42 719.929 1357.33 721.583 1343.68 725.718C1330.03 729.856 1316.45 736.886 1302.95 746.811Z" fill="white"/>
<path d="M1722.27 829.518C1723.92 821.803 1727.16 815.942 1731.99 811.943C1736.81 807.95 1742.12 805.882 1747.91 805.74C1753.7 805.604 1759.21 807.329 1764.45 810.909C1769.68 814.495 1773.41 820.007 1775.62 827.45C1775.89 845.374 1776.03 863.085 1776.03 880.589C1776.03 898.1 1776.3 915.675 1776.86 933.315C1788.98 933.315 1800.77 933.179 1812.21 932.901C1823.65 932.63 1834.61 932.488 1845.09 932.488C1852.53 934.698 1858.05 938.213 1861.63 943.033C1865.21 947.86 1866.94 952.893 1866.8 958.127C1866.66 963.367 1864.59 968.194 1860.6 972.601C1856.6 977.014 1850.74 980.045 1843.02 981.699C1832.27 981.699 1821.52 981.77 1810.77 981.906C1800.01 982.048 1789.26 981.977 1778.51 981.699C1779.06 995.488 1779.4 1010.44 1779.54 1026.57C1779.68 1042.7 1779.89 1057.65 1780.16 1071.44C1779.61 1080.54 1776.65 1087.29 1771.27 1091.7C1765.9 1096.11 1759.9 1098.32 1753.28 1098.32C1746.67 1098.32 1740.39 1096.04 1734.47 1091.49C1728.54 1086.95 1725.02 1080.26 1723.92 1071.44C1723.65 1057.38 1723.85 1042.56 1724.54 1026.98C1725.23 1011.41 1725.3 996.587 1724.75 982.527C1712.9 982.256 1700.15 981.635 1686.5 980.666C1672.85 979.703 1659.62 977.707 1646.8 974.67C1633.98 971.64 1622.19 967.369 1611.44 961.851C1600.69 956.339 1592.01 949.031 1585.39 939.933C1579.32 931.391 1575.88 922.151 1575.05 912.226C1574.22 902.301 1575.19 892.105 1577.95 881.624C1580.7 871.15 1584.84 860.534 1590.35 849.782C1595.86 839.03 1601.86 828.692 1608.34 818.767C1614.82 808.842 1621.3 799.538 1627.78 790.853C1634.25 782.169 1639.98 774.518 1644.94 767.902C1655.96 753.015 1667.27 738.541 1678.85 724.481C1690.43 710.421 1702.01 696.225 1713.59 681.887C1719.65 676.925 1725.92 674.379 1732.4 674.236C1738.88 674.1 1744.46 675.684 1749.15 678.992C1753.84 682.3 1757.07 686.991 1758.87 693.052C1760.66 699.119 1760.17 705.871 1757.42 713.315C1748.05 724.894 1737.02 738.062 1724.34 752.807C1711.66 767.559 1699.18 782.995 1686.91 799.123C1674.64 815.251 1663.48 831.657 1653.42 848.334C1643.35 865.018 1636.26 881.21 1632.12 896.924C1630.47 902.442 1631.09 907.198 1633.98 911.191C1636.87 915.191 1641.15 918.499 1646.8 921.116C1652.45 923.739 1659 925.872 1666.44 927.526C1673.89 929.18 1681.26 930.421 1688.57 931.248C1695.87 932.075 1702.63 932.696 1708.83 933.109C1715.03 933.522 1719.79 933.871 1723.1 934.143C1722.54 916.774 1722.27 899.341 1722.27 881.83C1722.27 864.326 1722.27 846.886 1722.27 829.518Z" fill="white"/>
<path opacity="0.54" d="M952.657 1369.46L820.07 996.703L853.738 1002.11C855.639 1002.42 857.226 1003.73 857.885 1005.54L990.576 1369.81C990.606 1369.9 990.545 1369.98 990.458 1369.98L952.657 1369.46Z" fill="#34929C"/>
<path d="M526.407 1385.29C532.006 1384.3 807.09 993.847 820.07 996.703C833.05 999.559 984.209 1458.43 978.593 1457.54C972.977 1456.65 512.496 1387.76 526.407 1385.29Z" fill="#FC476A"/>
<path d="M777.303 1322.14C775.166 1324.06 772.999 1325.3 770.797 1325.86C768.594 1326.43 766.484 1326.41 764.467 1325.81C762.451 1325.21 760.623 1324.07 758.987 1322.4C757.351 1320.74 756.111 1318.57 755.268 1315.9C756.606 1299.49 757.633 1282.83 758.35 1265.9C759.066 1248.97 759.979 1232.14 761.087 1215.42C762.191 1198.69 763.788 1182.22 765.873 1166.01C767.953 1149.79 771.033 1134.19 775.103 1119.2C775.434 1117.98 776.558 1116.9 778.474 1115.93C780.386 1114.97 782.713 1114.28 785.455 1113.87C788.195 1113.46 791.178 1113.3 794.405 1113.39C797.629 1113.48 800.736 1113.87 803.726 1114.56C806.714 1115.24 809.37 1116.26 811.69 1117.62C814.01 1118.97 815.703 1120.72 816.772 1122.86C818.506 1125.25 819.543 1129.36 819.885 1135.18C820.227 1141.01 820.095 1148.04 819.497 1156.25C818.895 1164.46 817.8 1173.59 816.207 1183.61C814.614 1193.64 812.73 1203.94 810.559 1214.51C808.385 1225.08 805.997 1235.69 803.393 1246.33C800.785 1256.97 798.026 1267.02 795.116 1276.49C792.203 1285.96 789.286 1294.58 786.361 1302.35C783.436 1310.13 780.607 1316.4 777.878 1321.18C777.856 1321.32 777.663 1321.64 777.303 1322.14ZM748.827 1384.38C745.813 1382.07 743.386 1379.39 741.545 1376.36C739.703 1373.32 738.644 1370.22 738.37 1367.08C738.093 1363.94 738.755 1360.88 740.358 1357.89C741.959 1354.91 744.626 1352.3 748.36 1350.08C753.504 1346.95 758.657 1345.76 763.819 1346.52C768.982 1347.26 772.954 1350.4 775.743 1355.91C778.363 1360.69 779.619 1365.85 779.514 1371.4C779.406 1376.95 776.991 1381.74 772.265 1385.78C768.813 1388.89 764.913 1390.17 760.564 1389.62C756.215 1389.07 752.3 1387.32 748.827 1384.38Z" fill="white"/>
<path d="M2300.76 1581.62H1967.89C1961.22 1581.62 1955.81 1576.21 1955.81 1569.54V1180.72C1955.81 1174.05 1961.22 1168.64 1967.89 1168.64H2300.76C2307.43 1168.64 2312.84 1174.05 2312.84 1180.72V1569.54C2312.84 1576.21 2307.43 1581.62 2300.76 1581.62Z" fill="#34929C"/>
<mask id="mask4_967_444" style="mask-type:luminance" maskUnits="userSpaceOnUse" x="1955" y="1168" width="358" height="414">
<path d="M2300.76 1581.62H1967.89C1961.22 1581.62 1955.81 1576.21 1955.81 1569.54V1180.72C1955.81 1174.05 1961.22 1168.64 1967.89 1168.64H2300.76C2307.43 1168.64 2312.84 1174.05 2312.84 1180.72V1569.54C2312.84 1576.21 2307.43 1581.62 2300.76 1581.62Z" fill="white"/>
</mask>
<g mask="url(#mask4_967_444)">
<path d="M2322.89 1227.12C2322.89 1227.12 2183.05 1424.02 1929.97 1478.51V1599.04H2331.71C2331.71 1599.04 2342.2 1234.17 2322.89 1227.12Z" fill="#34929C"/>
</g>
<path d="M2050.18 1168.64C2050.18 1168.64 2045.44 828.667 2051.76 824.718C2058.08 820.77 2106.25 816.821 2110.2 826.297C2114.14 835.773 2110.2 1168.64 2110.2 1168.64H2050.18V1168.64Z" fill="#FC476A"/>
<mask id="mask5_967_444" style="mask-type:luminance" maskUnits="userSpaceOnUse" x="2048" y="820" width="64" height="349">
<path d="M2050.18 1168.64C2050.18 1168.64 2045.44 828.667 2051.76 824.718C2058.08 820.77 2106.25 816.821 2110.2 826.297C2114.14 835.773 2110.2 1168.64 2110.2 1168.64H2050.18V1168.64Z" fill="white"/>
</mask>
<g mask="url(#mask5_967_444)">
<path d="M2091.49 873.214V1175.34H2068.94V873.822L2091.49 873.214Z" fill="#D40221"/>
</g>
<mask id="mask6_967_444" style="mask-type:luminance" maskUnits="userSpaceOnUse" x="2048" y="820" width="64" height="349">
<path d="M2050.18 1168.64C2050.18 1168.64 2045.44 828.667 2051.76 824.718C2058.08 820.77 2106.25 816.821 2110.2 826.297C2114.14 835.773 2110.2 1168.64 2110.2 1168.64H2050.18V1168.64Z" fill="white"/>
</mask>
<g mask="url(#mask6_967_444)">
<path d="M2039.11 886.272C2039.11 886.272 2109.2 880.955 2118.97 885.84C2118.97 885.84 2118.48 815.984 2114.57 814.518C2110.67 813.052 2043.74 812.675 2042.27 820.436C2040.81 828.196 2039.11 886.272 2039.11 886.272Z" fill="#D4DFFF"/>
</g>
<path d="M2285.01 1168.64H2145.52V677.962C2145.52 675.899 2147.2 674.227 2149.26 674.227H2281.27C2283.33 674.227 2285.01 675.899 2285.01 677.962V1168.64H2285.01Z" fill="#B6EEF7"/>
<mask id="mask7_967_444" style="mask-type:luminance" maskUnits="userSpaceOnUse" x="2145" y="674" width="141" height="495">
<path d="M2285.01 1168.64H2145.52V677.962C2145.52 675.899 2147.2 674.227 2149.26 674.227H2281.27C2283.33 674.227 2285.01 675.899 2285.01 677.962V1168.64H2285.01Z" fill="white"/>
</mask>
<g mask="url(#mask7_967_444)">
<path opacity="0.46" d="M2182.17 656.155H2134.32V1186.63H2182.17V656.155Z" fill="#34929C"/>
</g>
<mask id="mask8_967_444" style="mask-type:luminance" maskUnits="userSpaceOnUse" x="2145" y="674" width="141" height="495">
<path d="M2285.01 1168.64H2145.52V677.962C2145.52 675.899 2147.2 674.227 2149.26 674.227H2281.27C2283.33 674.227 2285.01 675.899 2285.01 677.962V1168.64H2285.01Z" fill="white"/>
</mask>
<g mask="url(#mask8_967_444)">
<path d="M2163.1 712.157H2145.52V718.279H2163.1V712.157Z" fill="#34929C"/>
</g>
<mask id="mask9_967_444" style="mask-type:luminance" maskUnits="userSpaceOnUse" x="2145" y="674" width="141" height="495">
<path d="M2285.01 1168.64H2145.52V677.962C2145.52 675.899 2147.2 674.227 2149.26 674.227H2281.27C2283.33 674.227 2285.01 675.899 2285.01 677.962V1168.64H2285.01Z" fill="white"/>
</mask>
<g mask="url(#mask9_967_444)">
<path d="M2163.1 740.34H2145.52V746.462H2163.1V740.34Z" fill="#34929C"/>
</g>
<mask id="mask10_967_444" style="mask-type:luminance" maskUnits="userSpaceOnUse" x="2145" y="674" width="141" height="495">
<path d="M2285.01 1168.64H2145.52V677.962C2145.52 675.899 2147.2 674.227 2149.26 674.227H2281.27C2283.33 674.227 2285.01 675.899 2285.01 677.962V1168.64H2285.01Z" fill="white"/>
</mask>
<g mask="url(#mask10_967_444)">
<path d="M2163.1 768.524H2145.52V774.646H2163.1V768.524Z" fill="#34929C"/>
</g>
<mask id="mask11_967_444" style="mask-type:luminance" maskUnits="userSpaceOnUse" x="2145" y="674" width="141" height="495">
<path d="M2285.01 1168.64H2145.52V677.962C2145.52 675.899 2147.2 674.227 2149.26 674.227H2281.27C2283.33 674.227 2285.01 675.899 2285.01 677.962V1168.64H2285.01Z" fill="white"/>
</mask>
<g mask="url(#mask11_967_444)">
<path d="M2163.1 796.708H2145.52V802.83H2163.1V796.708Z" fill="#34929C"/>
</g>
<mask id="mask12_967_444" style="mask-type:luminance" maskUnits="userSpaceOnUse" x="2145" y="674" width="141" height="495">
<path d="M2285.01 1168.64H2145.52V677.962C2145.52 675.899 2147.2 674.227 2149.26 674.227H2281.27C2283.33 674.227 2285.01 675.899 2285.01 677.962V1168.64H2285.01Z" fill="white"/>
</mask>
<g mask="url(#mask12_967_444)">
<path d="M2163.1 824.892H2145.52V831.014H2163.1V824.892Z" fill="#34929C"/>
</g>
<mask id="mask13_967_444" style="mask-type:luminance" maskUnits="userSpaceOnUse" x="2145" y="674" width="141" height="495">
<path d="M2285.01 1168.64H2145.52V677.962C2145.52 675.899 2147.2 674.227 2149.26 674.227H2281.27C2283.33 674.227 2285.01 675.899 2285.01 677.962V1168.64H2285.01Z" fill="white"/>
</mask>
<g mask="url(#mask13_967_444)">
<path d="M2163.1 853.076H2145.52V859.198H2163.1V853.076Z" fill="#34929C"/>
</g>
<mask id="mask14_967_444" style="mask-type:luminance" maskUnits="userSpaceOnUse" x="2145" y="674" width="141" height="495">
<path d="M2285.01 1168.64H2145.52V677.962C2145.52 675.899 2147.2 674.227 2149.26 674.227H2281.27C2283.33 674.227 2285.01 675.899 2285.01 677.962V1168.64H2285.01Z" fill="white"/>
</mask>
<g mask="url(#mask14_967_444)">
<path d="M2163.1 881.259H2145.52V887.381H2163.1V881.259Z" fill="#34929C"/>
</g>
<mask id="mask15_967_444" style="mask-type:luminance" maskUnits="userSpaceOnUse" x="2145" y="674" width="141" height="495">
<path d="M2285.01 1168.64H2145.52V677.962C2145.52 675.899 2147.2 674.227 2149.26 674.227H2281.27C2283.33 674.227 2285.01 675.899 2285.01 677.962V1168.64H2285.01Z" fill="white"/>
</mask>
<g mask="url(#mask15_967_444)">
<path d="M2163.1 909.443H2145.52V915.565H2163.1V909.443Z" fill="#34929C"/>
</g>
<mask id="mask16_967_444" style="mask-type:luminance" maskUnits="userSpaceOnUse" x="2145" y="674" width="141" height="495">
<path d="M2285.01 1168.64H2145.52V677.962C2145.52 675.899 2147.2 674.227 2149.26 674.227H2281.27C2283.33 674.227 2285.01 675.899 2285.01 677.962V1168.64H2285.01Z" fill="white"/>
</mask>
<g mask="url(#mask16_967_444)">
<path d="M2163.1 937.627H2145.52V943.749H2163.1V937.627Z" fill="#34929C"/>
</g>
<mask id="mask17_967_444" style="mask-type:luminance" maskUnits="userSpaceOnUse" x="2145" y="674" width="141" height="495">
<path d="M2285.01 1168.64H2145.52V677.962C2145.52 675.899 2147.2 674.227 2149.26 674.227H2281.27C2283.33 674.227 2285.01 675.899 2285.01 677.962V1168.64H2285.01Z" fill="white"/>
</mask>
<g mask="url(#mask17_967_444)">
<path d="M2163.1 965.811H2145.52V971.933H2163.1V965.811Z" fill="#34929C"/>
</g>
<mask id="mask18_967_444" style="mask-type:luminance" maskUnits="userSpaceOnUse" x="2145" y="674" width="141" height="495">
<path d="M2285.01 1168.64H2145.52V677.962C2145.52 675.899 2147.2 674.227 2149.26 674.227H2281.27C2283.33 674.227 2285.01 675.899 2285.01 677.962V1168.64H2285.01Z" fill="white"/>
</mask>
<g mask="url(#mask18_967_444)">
<path d="M2163.1 993.994H2145.52V1000.12H2163.1V993.994Z" fill="#34929C"/>
</g>
<mask id="mask19_967_444" style="mask-type:luminance" maskUnits="userSpaceOnUse" x="2145" y="674" width="141" height="495">
<path d="M2285.01 1168.64H2145.52V677.962C2145.52 675.899 2147.2 674.227 2149.26 674.227H2281.27C2283.33 674.227 2285.01 675.899 2285.01 677.962V1168.64H2285.01Z" fill="white"/>
</mask>
<g mask="url(#mask19_967_444)">
<path d="M2163.1 1022.18H2145.52V1028.3H2163.1V1022.18Z" fill="#34929C"/>
</g>
<mask id="mask20_967_444" style="mask-type:luminance" maskUnits="userSpaceOnUse" x="2145" y="674" width="141" height="495">
<path d="M2285.01 1168.64H2145.52V677.962C2145.52 675.899 2147.2 674.227 2149.26 674.227H2281.27C2283.33 674.227 2285.01 675.899 2285.01 677.962V1168.64H2285.01Z" fill="white"/>
</mask>
<g mask="url(#mask20_967_444)">
<path d="M2163.1 1050.36H2145.52V1056.48H2163.1V1050.36Z" fill="#34929C"/>
</g>
<mask id="mask21_967_444" style="mask-type:luminance" maskUnits="userSpaceOnUse" x="2145" y="674" width="141" height="495">
<path d="M2285.01 1168.64H2145.52V677.962C2145.52 675.899 2147.2 674.227 2149.26 674.227H2281.27C2283.33 674.227 2285.01 675.899 2285.01 677.962V1168.64H2285.01Z" fill="white"/>
</mask>
<g mask="url(#mask21_967_444)">
<path d="M2163.1 1078.55H2145.52V1084.67H2163.1V1078.55Z" fill="#34929C"/>
</g>
<mask id="mask22_967_444" style="mask-type:luminance" maskUnits="userSpaceOnUse" x="2145" y="674" width="141" height="495">
<path d="M2285.01 1168.64H2145.52V677.962C2145.52 675.899 2147.2 674.227 2149.26 674.227H2281.27C2283.33 674.227 2285.01 675.899 2285.01 677.962V1168.64H2285.01Z" fill="white"/>
</mask>
<g mask="url(#mask22_967_444)">
<path d="M2163.1 1106.73H2145.52V1112.85H2163.1V1106.73Z" fill="#34929C"/>
</g>
<mask id="mask23_967_444" style="mask-type:luminance" maskUnits="userSpaceOnUse" x="2145" y="674" width="141" height="495">
<path d="M2285.01 1168.64H2145.52V677.962C2145.52 675.899 2147.2 674.227 2149.26 674.227H2281.27C2283.33 674.227 2285.01 675.899 2285.01 677.962V1168.64H2285.01Z" fill="white"/>
</mask>
<g mask="url(#mask23_967_444)">
<path d="M2163.1 1134.91H2145.52V1141.04H2163.1V1134.91Z" fill="#34929C"/>
</g>
<mask id="mask24_967_444" style="mask-type:luminance" maskUnits="userSpaceOnUse" x="2145" y="674" width="141" height="495">
<path d="M2285.01 1168.64H2145.52V677.962C2145.52 675.899 2147.2 674.227 2149.26 674.227H2281.27C2283.33 674.227 2285.01 675.899 2285.01 677.962V1168.64H2285.01Z" fill="white"/>
</mask>
<g mask="url(#mask24_967_444)">
<path opacity="0.17" d="M2254.83 655.573C2216.13 688.73 2202.56 748.032 2222.98 794.724C2232.71 816.945 2249.32 836.764 2252.44 860.818C2255.46 884.153 2245.2 906.85 2237.08 928.935C2229.09 950.699 2222.93 973.692 2224.55 996.823C2227.21 1034.65 2250.41 1070.04 2246.62 1107.77C2242.98 1144.01 2214.8 1175.56 2216.42 1211.95C2216.88 1211.95 2215.93 1213.55 2216.4 1213.55H2307.01L2306.97 653.252L2318.12 653.363L2254.83 655.573Z" fill="#34929C"/>
</g>
<path d="M964.573 415.943L911.596 422.796C882.428 409.13 854.184 400.28 827.852 403.031C801.4 405.795 786.204 433.49 792.731 452.138C798.471 468.539 846.065 485.359 866.595 485.754C887.125 486.149 918.315 481.411 929.764 471.253C929.781 471.238 929.792 471.22 929.809 471.205H964.572V415.943H964.573Z" fill="#FE8E9C"/>
<mask id="mask25_967_444" style="mask-type:luminance" maskUnits="userSpaceOnUse" x="791" y="402" width="174" height="84">
<path d="M964.573 415.943L911.596 422.796C882.428 409.13 854.184 400.28 827.852 403.031C801.4 405.795 786.204 433.49 792.731 452.138C798.471 468.539 846.065 485.359 866.595 485.754C887.125 486.149 918.315 481.411 929.764 471.253C929.781 471.238 929.792 471.22 929.809 471.205H964.572V415.943H964.573Z" fill="white"/>
</mask>
<g mask="url(#mask25_967_444)">
<path d="M848.158 488.277C848.158 488.277 858.352 468.352 857.889 453.061C857.426 437.77 836.409 413.942 836.409 413.942L818.966 414.833C818.966 414.833 824.654 470.669 819.609 480.516L848.158 488.277Z" fill="#E57492"/>
</g>
<path d="M929.766 471.254C929.766 471.254 940.26 455.146 915.871 438.886C915.871 438.886 937.623 442.402 945.094 456.903C952.565 471.405 951.026 471.624 951.026 471.624L929.766 471.254Z" fill="#E57492"/>
<path d="M911.595 422.797C911.595 422.797 894.615 424.304 891.331 424.384C879.438 424.672 867.52 425.327 867.52 425.327C867.52 425.327 860.112 401.279 849.217 406.207C833.217 413.445 851.505 424.673 851.505 424.673C851.505 424.673 823.07 419.934 820.292 419.77C817.514 419.607 841.577 470.362 815.906 485.778C790.235 501.194 761.64 493.07 758.066 453.102C754.492 413.134 795.435 374.79 833.129 376.09C870.822 377.389 911.595 422.797 911.595 422.797Z" fill="#FC476A"/>
<mask id="mask26_967_444" style="mask-type:luminance" maskUnits="userSpaceOnUse" x="757" y="376" width="155" height="118">
<path d="M911.595 422.797C911.595 422.797 894.615 424.304 891.331 424.384C879.438 424.672 867.52 425.327 867.52 425.327C867.52 425.327 860.112 401.279 849.217 406.207C833.217 413.445 851.505 424.673 851.505 424.673C851.505 424.673 823.07 419.934 820.292 419.77C817.514 419.607 841.577 470.362 815.906 485.778C790.235 501.194 761.64 493.07 758.066 453.102C754.492 413.134 795.435 374.79 833.129 376.09C870.822 377.389 911.595 422.797 911.595 422.797Z" fill="white"/>
</mask>
<g mask="url(#mask26_967_444)">
<path d="M794.082 493.081C794.082 493.081 813.624 476.711 812.659 458.616C811.694 440.522 805.861 412.195 808.727 410.315C811.593 408.435 841.693 420.449 841.693 420.449C841.693 420.449 836.151 412.324 845.807 408.164C845.807 408.164 861.105 424.911 860.024 426.668C858.942 428.425 823.795 424.911 823.795 424.911C823.795 424.911 837.584 458.775 827.715 478.782C817.846 498.789 794.082 493.081 794.082 493.081Z" fill="#FC476A"/>
</g>
<path d="M910.481 471.625C910.481 471.625 902.391 469.3 902.391 455.256C902.391 441.211 902.391 453.852 902.391 453.852C902.391 453.852 910.612 468.798 910.481 471.625Z" fill="#F6F9FF"/>
<path d="M844.703 454.494C844.703 454.494 876.968 472.042 879.996 470.179C883.024 468.316 877.55 448.632 877.55 448.632C877.55 448.632 881.044 448.399 881.859 451.544C882.674 454.689 887.217 473.207 881.859 473.557C876.502 473.906 849.941 460.822 844.703 454.494Z" fill="#E57492"/>
<path d="M1031.3 787.847C1031.3 787.847 1023.38 798.491 1020.77 803.757C1018.16 809.022 1017.31 835.357 1017.86 835.267C1018.41 835.177 1024.26 834.867 1025.47 831.383L1031.94 809.151C1031.94 809.151 1032.39 832.99 1031.6 834.678C1030.81 836.367 1017.08 863.728 1018.29 864.596C1019.5 865.464 1024.7 868.632 1028.75 861.814C1032.8 854.995 1042.37 837.342 1043.55 834.522C1044.73 831.703 1024.8 871.727 1025.6 872.045C1026.4 872.363 1031.5 875.011 1033.53 872.402C1035.55 869.793 1053.39 841.384 1053.98 839.099C1054.57 836.813 1042.86 866.318 1043.47 866.305C1044.08 866.292 1046.42 869.324 1049.61 865.298C1052.8 861.272 1063.53 839.635 1064.04 838.5C1064.56 837.365 1064.39 823.582 1064.39 823.582C1064.39 823.582 1067.07 839.77 1066.44 841.879C1065.82 843.988 1060.9 856.247 1063.18 856.676C1064.92 857.002 1067.92 853.678 1070.29 849.333C1072.66 844.989 1075.67 838.482 1075.44 832.302C1075.22 826.122 1063.83 791.528 1063.83 791.528L1031.3 787.847Z" fill="#FE8E9C"/>
<mask id="mask27_967_444" style="mask-type:luminance" maskUnits="userSpaceOnUse" x="1017" y="787" width="59" height="87">
<path d="M1031.3 787.847C1031.3 787.847 1023.38 798.491 1020.77 803.757C1018.16 809.022 1017.31 835.357 1017.86 835.267C1018.41 835.177 1024.26 834.867 1025.47 831.383L1031.94 809.151C1031.94 809.151 1032.39 832.99 1031.6 834.678C1030.81 836.367 1017.08 863.728 1018.29 864.596C1019.5 865.464 1024.7 868.632 1028.75 861.814C1032.8 854.995 1042.37 837.342 1043.55 834.522C1044.73 831.703 1024.8 871.727 1025.6 872.045C1026.4 872.363 1031.5 875.011 1033.53 872.402C1035.55 869.793 1053.39 841.384 1053.98 839.099C1054.57 836.813 1042.86 866.318 1043.47 866.305C1044.08 866.292 1046.42 869.324 1049.61 865.298C1052.8 861.272 1063.53 839.635 1064.04 838.5C1064.56 837.365 1064.39 823.582 1064.39 823.582C1064.39 823.582 1067.07 839.77 1066.44 841.879C1065.82 843.988 1060.9 856.247 1063.18 856.676C1064.92 857.002 1067.92 853.678 1070.29 849.333C1072.66 844.989 1075.67 838.482 1075.44 832.302C1075.22 826.122 1063.83 791.528 1063.83 791.528L1031.3 787.847Z" fill="white"/>
</mask>
<g mask="url(#mask27_967_444)">
<path d="M1014.81 812.995C1015.31 814.797 1039.56 801.341 1072.6 806.507C1072.6 806.507 1068.16 786.442 1064.55 784.64C1060.95 782.838 1032.59 782.838 1028.27 784.88C1023.94 786.922 1012.53 804.704 1014.81 812.995Z" fill="#E57492"/>
</g>
<path d="M1327.78 392.997C1327.78 390.875 1326.26 389.059 1324.17 388.683L1152.28 357.77C1008.09 345.437 964.57 409.263 964.57 409.263V471.232L981.438 471.165C993.927 507.637 1029.46 612.157 1033.08 631.145C1037.48 654.226 1009.11 793.208 1012.05 795.05C1014.99 796.892 1078.67 804.729 1084.55 803.75C1090.42 802.77 1119.81 649.712 1117.86 631.212C1116.35 617.01 1111.96 519.617 1101.14 470.689L1327.78 469.787V392.997Z" fill="#FC476A"/>
<path d="M1101.14 470.688C1101.14 470.688 1096.84 447.96 1077.78 432.183C1077.78 432.183 1179.67 452.561 1209.26 454.533C1238.84 456.505 1327.78 448.681 1327.78 448.681V469.785L1101.14 470.688Z" fill="#D40221"/>
<path d="M1838.9 531.867C1838.9 531.867 1874.72 523.358 1875.62 525C1876.52 526.642 1881.59 543.062 1879.65 549.033C1877.71 555.004 1842.48 567.842 1842.48 567.842L1838.9 531.867Z" fill="#E57492"/>
<path d="M1866.81 422.921C1866.81 422.921 1527.46 395.076 1456.98 380.284C1386.49 365.492 1327.78 397.647 1327.78 397.647V469.786C1327.78 469.786 1510.15 625.16 1591.92 627.204C1673.7 629.248 1844.75 583.59 1846.11 576.094C1847.47 568.598 1846.11 524.302 1839.3 521.577C1832.48 518.851 1606.24 544.747 1602.15 539.977C1599.49 536.879 1561.18 498.42 1527.56 469.787H1866.81V422.921H1866.81Z" fill="#34929C"/>
<mask id="mask28_967_444" style="mask-type:luminance" maskUnits="userSpaceOnUse" x="1327" y="376" width="540" height="252">
<path d="M1866.81 422.921C1866.81 422.921 1527.46 395.076 1456.98 380.284C1386.49 365.492 1327.78 397.647 1327.78 397.647V469.786C1327.78 469.786 1510.15 625.16 1591.92 627.204C1673.7 629.248 1844.75 583.59 1846.11 576.094C1847.47 568.598 1846.11 524.302 1839.3 521.577C1832.48 518.851 1606.24 544.747 1602.15 539.977C1599.49 536.879 1561.18 498.42 1527.56 469.787H1866.81V422.921H1866.81Z" fill="white"/>
</mask>
<g mask="url(#mask28_967_444)">
<path d="M1608.59 586.26C1607.39 586.26 1606.44 586.218 1605.67 586.134C1605.48 586.113 1605.29 586.086 1605.09 586.05C1604.22 585.899 1603.64 585.073 1603.79 584.206C1603.94 583.338 1604.77 582.754 1605.64 582.91C1605.77 582.933 1605.9 582.952 1606.02 582.966C1607.03 583.078 1608.61 583.101 1610.62 583.038C1611.51 583.01 1612.23 583.7 1612.26 584.58C1612.29 585.46 1611.6 586.196 1610.72 586.224C1609.95 586.248 1609.24 586.26 1608.59 586.26ZM1616 585.938C1615.17 585.938 1614.47 585.296 1614.41 584.456C1614.35 583.578 1615.01 582.815 1615.89 582.754C1617.5 582.64 1619.27 582.498 1621.18 582.328C1622.04 582.249 1622.83 582.896 1622.91 583.774C1622.98 584.651 1622.34 585.425 1621.46 585.503C1619.53 585.675 1617.75 585.819 1616.11 585.934C1616.07 585.936 1616.04 585.938 1616 585.938ZM1626.63 585.003C1625.82 585.003 1625.13 584.391 1625.04 583.569C1624.95 582.693 1625.59 581.911 1626.47 581.822C1628.15 581.651 1629.92 581.466 1631.76 581.265C1632.63 581.172 1633.42 581.802 1633.51 582.678C1633.61 583.553 1632.98 584.34 1632.1 584.435C1630.25 584.636 1628.48 584.823 1626.79 584.994C1626.73 585.001 1626.68 585.003 1626.63 585.003ZM1600.31 584.402C1600.11 584.402 1599.9 584.361 1599.69 584.275C1598.25 583.665 1596.59 582.891 1594.76 581.973C1593.98 581.578 1593.66 580.62 1594.05 579.833C1594.45 579.045 1595.41 578.729 1596.19 579.122C1597.96 580.01 1599.56 580.756 1600.94 581.339C1601.75 581.682 1602.13 582.618 1601.78 583.429C1601.52 584.036 1600.93 584.402 1600.31 584.402ZM1637.22 583.851C1636.42 583.851 1635.73 583.252 1635.64 582.439C1635.54 581.564 1636.17 580.774 1637.04 580.673C1638.75 580.475 1640.51 580.268 1642.32 580.051C1643.2 579.943 1643.99 580.57 1644.1 581.444C1644.2 582.318 1643.58 583.112 1642.7 583.217C1640.89 583.434 1639.12 583.642 1637.4 583.84C1637.34 583.848 1637.28 583.851 1637.22 583.851ZM1647.8 582.584C1647.01 582.584 1646.32 581.993 1646.22 581.186C1646.11 580.312 1646.73 579.516 1647.61 579.408C1649.33 579.194 1651.09 578.973 1652.88 578.745C1653.75 578.632 1654.56 579.252 1654.67 580.125C1654.78 580.998 1654.16 581.796 1653.29 581.908C1651.49 582.136 1649.72 582.358 1648 582.572C1647.93 582.58 1647.86 582.584 1647.8 582.584ZM1658.36 581.241C1657.57 581.241 1656.89 580.656 1656.78 579.852C1656.67 578.979 1657.29 578.179 1658.16 578.066C1659.89 577.841 1661.65 577.61 1663.43 577.374C1664.31 577.261 1665.11 577.873 1665.22 578.745C1665.34 579.618 1664.72 580.419 1663.85 580.535C1662.07 580.771 1660.3 581.002 1658.57 581.228C1658.5 581.237 1658.43 581.241 1658.36 581.241ZM1668.92 579.844C1668.13 579.844 1667.45 579.263 1667.34 578.462C1667.22 577.589 1667.84 576.787 1668.71 576.67L1673.98 575.956C1674.85 575.831 1675.66 576.448 1675.77 577.32C1675.89 578.193 1675.28 578.996 1674.41 579.115L1669.13 579.83C1669.06 579.84 1668.99 579.844 1668.92 579.844ZM1590.75 579.667C1590.49 579.667 1590.23 579.604 1589.99 579.474C1588.51 578.669 1586.94 577.797 1585.3 576.864C1584.54 576.428 1584.27 575.455 1584.71 574.69C1585.14 573.925 1586.11 573.656 1586.88 574.093C1588.5 575.014 1590.05 575.875 1591.51 576.671C1592.28 577.091 1592.57 578.059 1592.15 578.833C1591.86 579.365 1591.32 579.667 1590.75 579.667ZM1679.47 578.406C1678.68 578.406 1678 577.828 1677.89 577.029C1677.77 576.157 1678.38 575.352 1679.25 575.232L1684.52 574.501C1685.39 574.384 1686.2 574.988 1686.32 575.86C1686.44 576.732 1685.83 577.538 1684.96 577.659L1679.69 578.39C1679.61 578.401 1679.54 578.406 1679.47 578.406ZM1690.01 576.935C1689.23 576.935 1688.54 576.359 1688.43 575.563C1688.31 574.691 1688.92 573.885 1689.79 573.762L1695.05 573.016C1695.92 572.885 1696.73 573.498 1696.86 574.37C1696.98 575.242 1696.38 576.049 1695.5 576.173L1690.23 576.919C1690.16 576.93 1690.08 576.935 1690.01 576.935ZM1700.55 575.436C1699.77 575.436 1699.08 574.863 1698.97 574.068C1698.84 573.196 1699.45 572.389 1700.32 572.264L1705.59 571.506C1706.47 571.383 1707.27 571.984 1707.39 572.856C1707.52 573.727 1706.92 574.536 1706.04 574.662L1700.77 575.421C1700.7 575.431 1700.62 575.436 1700.55 575.436ZM1581.48 574.402C1581.2 574.402 1580.93 574.331 1580.67 574.181C1579.19 573.308 1577.66 572.395 1576.08 571.443C1575.33 570.988 1575.08 570.008 1575.54 569.254C1575.99 568.501 1576.98 568.257 1577.73 568.713C1579.29 569.658 1580.82 570.566 1582.29 571.433C1583.05 571.88 1583.3 572.857 1582.85 573.616C1582.56 574.121 1582.03 574.402 1581.48 574.402ZM1711.08 573.914C1710.3 573.914 1709.62 573.343 1709.5 572.549C1709.38 571.678 1709.98 570.869 1710.85 570.742L1716.12 569.974C1716.99 569.847 1717.8 570.449 1717.92 571.32C1718.05 572.192 1717.45 573.001 1716.58 573.129L1711.31 573.898C1711.23 573.909 1711.15 573.914 1711.08 573.914ZM1721.61 572.371C1720.83 572.371 1720.15 571.801 1720.03 571.009C1719.9 570.138 1720.51 569.328 1721.38 569.2L1726.64 568.423C1727.51 568.293 1728.32 568.896 1728.45 569.766C1728.58 570.637 1727.98 571.448 1727.11 571.577L1721.84 572.354C1721.76 572.366 1721.68 572.371 1721.61 572.371ZM1732.16 570.809C1731.38 570.809 1730.7 570.241 1730.58 569.45C1730.45 568.579 1731.05 567.768 1731.92 567.638L1737.19 566.851C1738.07 566.718 1738.87 567.321 1739 568.192C1739.13 569.063 1738.53 569.874 1737.66 570.005L1732.39 570.792C1732.31 570.804 1732.23 570.809 1732.16 570.809ZM1742.68 569.234C1741.9 569.234 1741.22 568.667 1741.11 567.877C1740.97 567.006 1741.57 566.194 1742.45 566.063L1747.71 565.271C1748.58 565.138 1749.39 565.739 1749.52 566.609C1749.65 567.48 1749.05 568.292 1748.18 568.423L1742.92 569.217C1742.84 569.228 1742.76 569.234 1742.68 569.234ZM1572.35 568.9C1572.07 568.9 1571.78 568.824 1571.52 568.664C1570.04 567.754 1568.53 566.816 1566.99 565.851C1566.24 565.384 1566.01 564.401 1566.48 563.654C1566.94 562.908 1567.93 562.679 1568.67 563.147C1570.21 564.107 1571.72 565.041 1573.19 565.948C1573.94 566.41 1574.17 567.392 1573.71 568.141C1573.41 568.631 1572.89 568.9 1572.35 568.9ZM1753.21 567.645C1752.43 567.645 1751.75 567.08 1751.63 566.29C1751.5 565.419 1752.1 564.606 1752.97 564.475L1758.23 563.675C1759.1 563.548 1759.91 564.14 1760.04 565.011C1760.18 565.882 1759.58 566.695 1758.71 566.828L1753.45 567.628C1753.37 567.639 1753.28 567.645 1753.21 567.645ZM1763.73 566.042C1762.95 566.042 1762.27 565.477 1762.15 564.688C1762.02 563.818 1762.62 563.004 1763.49 562.872L1768.75 562.066C1769.62 561.934 1770.43 562.53 1770.56 563.399C1770.7 564.27 1770.1 565.083 1769.23 565.217L1763.97 566.023C1763.89 566.036 1763.81 566.042 1763.73 566.042ZM1774.25 564.427C1773.47 564.427 1772.8 563.863 1772.67 563.075C1772.54 562.204 1773.14 561.39 1774.01 561.257L1779.27 560.446C1780.13 560.314 1780.95 560.908 1781.08 561.779C1781.22 562.649 1780.62 563.463 1779.75 563.598L1774.49 564.409C1774.41 564.421 1774.33 564.427 1774.25 564.427ZM1563.32 563.258C1563.03 563.258 1562.73 563.178 1562.47 563.011C1560.99 562.077 1559.49 561.122 1557.97 560.147C1557.23 559.672 1557.01 558.686 1557.49 557.944C1557.96 557.203 1558.95 556.985 1559.69 557.462C1561.21 558.433 1562.7 559.385 1564.17 560.316C1564.92 560.787 1565.14 561.772 1564.67 562.516C1564.37 562.996 1563.85 563.258 1563.32 563.258ZM1784.77 562.801C1784 562.801 1783.32 562.238 1783.19 561.451C1783.06 560.581 1783.66 559.766 1784.53 559.632L1789.78 558.815C1790.66 558.68 1791.47 559.276 1791.6 560.145C1791.74 561.015 1791.14 561.83 1790.27 561.965L1785.01 562.782C1784.93 562.795 1784.85 562.801 1784.77 562.801ZM1795.29 561.164C1794.51 561.164 1793.84 560.602 1793.71 559.815C1793.58 558.945 1794.17 558.129 1795.04 557.994L1800.3 557.172C1801.17 557.041 1801.99 557.632 1802.12 558.501C1802.26 559.371 1801.67 560.186 1800.8 560.322L1795.53 561.144C1795.45 561.158 1795.37 561.164 1795.29 561.164ZM1805.81 559.518C1805.04 559.518 1804.36 558.957 1804.23 558.171C1804.1 557.301 1804.69 556.486 1805.56 556.349L1810.82 555.522C1811.7 555.386 1812.51 555.98 1812.64 556.849C1812.78 557.719 1812.19 558.535 1811.32 558.672L1806.06 559.5C1805.97 559.511 1805.89 559.518 1805.81 559.518ZM1816.33 557.861C1815.56 557.861 1814.88 557.301 1814.76 556.515C1814.62 555.645 1815.21 554.829 1816.08 554.692L1821.34 553.86C1822.2 553.721 1823.03 554.315 1823.17 555.185C1823.3 556.055 1822.71 556.871 1821.84 557.009L1816.58 557.842C1816.49 557.855 1816.41 557.861 1816.33 557.861ZM1554.35 557.519C1554.06 557.519 1553.76 557.437 1553.49 557.264C1552.02 556.313 1550.52 555.345 1549.02 554.363C1548.28 553.883 1548.07 552.895 1548.55 552.157C1549.03 551.421 1550.02 551.21 1550.76 551.692C1552.26 552.671 1553.75 553.637 1555.22 554.586C1555.96 555.064 1556.17 556.05 1555.69 556.79C1555.39 557.262 1554.88 557.519 1554.35 557.519ZM1826.85 556.193C1826.08 556.193 1825.4 555.634 1825.28 554.849C1825.14 553.979 1825.73 553.162 1826.6 553.024L1831.87 552.187C1832.74 552.041 1833.56 552.641 1833.69 553.51C1833.83 554.38 1833.24 555.197 1832.37 555.335L1827.1 556.173C1827.02 556.187 1826.94 556.193 1826.85 556.193ZM1837.39 554.515C1836.62 554.515 1835.94 553.956 1835.81 553.172C1835.67 552.302 1836.27 551.485 1837.14 551.346L1842.41 550.502C1843.27 550.364 1844.09 550.955 1844.23 551.824C1844.37 552.693 1843.78 553.511 1842.91 553.651L1837.64 554.495C1837.55 554.508 1837.47 554.515 1837.39 554.515ZM1847.94 552.821C1847.17 552.821 1846.49 552.264 1846.37 551.48C1846.23 550.611 1846.82 549.792 1847.69 549.653L1853 548.794C1853.87 548.656 1854.69 549.243 1854.83 550.112C1854.97 550.981 1854.38 551.8 1853.51 551.941L1848.19 552.8C1848.11 552.815 1848.02 552.821 1847.94 552.821ZM1545.43 551.709C1545.13 551.709 1544.83 551.625 1544.56 551.448C1543.09 550.483 1541.6 549.506 1540.11 548.518C1539.38 548.033 1539.17 547.043 1539.66 546.309C1540.14 545.574 1541.13 545.373 1541.87 545.858C1543.36 546.844 1544.84 547.819 1546.31 548.782C1547.04 549.265 1547.25 550.254 1546.77 550.989C1546.46 551.456 1545.95 551.709 1545.43 551.709ZM1536.55 545.842C1536.25 545.842 1535.94 545.756 1535.67 545.575C1534.2 544.6 1532.72 543.616 1531.24 542.622C1530.51 542.133 1530.31 541.143 1530.8 540.411C1531.29 539.68 1532.28 539.481 1533.01 539.971C1534.49 540.963 1535.97 541.946 1537.43 542.92C1538.17 543.407 1538.37 544.397 1537.88 545.13C1537.57 545.592 1537.07 545.842 1536.55 545.842ZM1527.7 539.931C1527.39 539.931 1527.08 539.844 1526.81 539.66L1522.39 536.688C1521.66 536.196 1521.47 535.205 1521.96 534.475C1522.45 533.747 1523.44 533.55 1524.17 534.044L1528.59 537.012C1529.32 537.503 1529.51 538.493 1529.02 539.224C1528.72 539.684 1528.21 539.931 1527.7 539.931ZM1518.87 533.982C1518.57 533.982 1518.26 533.894 1517.98 533.708L1513.57 530.72C1512.85 530.225 1512.66 529.233 1513.15 528.505C1513.65 527.776 1514.64 527.589 1515.37 528.082L1519.77 531.067C1520.5 531.561 1520.69 532.552 1520.2 533.281C1519.89 533.737 1519.39 533.982 1518.87 533.982ZM1510.07 528.002C1509.76 528.002 1509.45 527.912 1509.17 527.725L1504.79 524.73C1504.06 524.233 1503.87 523.241 1504.37 522.514C1504.87 521.787 1505.86 521.6 1506.59 522.097L1510.97 525.09C1511.7 525.586 1511.89 526.578 1511.39 527.305C1511.08 527.758 1510.58 528.002 1510.07 528.002ZM1501.29 522C1500.98 522 1500.67 521.91 1500.39 521.721L1495.99 518.698C1495.27 518.199 1495.09 517.206 1495.59 516.481C1496.09 515.754 1497.08 515.574 1497.8 516.071L1502.2 519.091C1502.93 519.589 1503.11 520.582 1502.61 521.308C1502.3 521.758 1501.8 522 1501.29 522ZM1492.51 515.959C1492.2 515.959 1491.89 515.868 1491.61 515.677L1487.23 512.652C1486.51 512.151 1486.32 511.158 1486.83 510.434C1487.33 509.709 1488.32 509.53 1489.04 510.029L1493.42 513.052C1494.15 513.552 1494.33 514.545 1493.83 515.27C1493.52 515.719 1493.02 515.959 1492.51 515.959ZM1483.76 509.907C1483.45 509.907 1483.13 509.815 1482.85 509.623L1478.48 506.589C1477.76 506.087 1477.58 505.093 1478.08 504.37C1478.58 503.646 1479.58 503.469 1480.3 503.971L1484.67 507.003C1485.39 507.505 1485.57 508.498 1485.07 509.222C1484.76 509.668 1484.26 509.907 1483.76 509.907ZM1475.02 503.835C1474.7 503.835 1474.39 503.742 1474.11 503.549L1469.74 500.506C1469.02 500.003 1468.84 499.009 1469.34 498.287C1469.85 497.564 1470.84 497.388 1471.56 497.891L1475.93 500.932C1476.65 501.435 1476.83 502.429 1476.33 503.151C1476.02 503.597 1475.52 503.835 1475.02 503.835ZM1466.29 497.747C1465.97 497.747 1465.66 497.654 1465.38 497.459L1461.04 494.429C1460.32 493.925 1460.13 492.92 1460.64 492.199C1461.14 491.477 1462.12 491.291 1462.84 491.796L1467.2 494.845C1467.93 495.349 1468.1 496.343 1467.6 497.065C1467.29 497.51 1466.79 497.747 1466.29 497.747ZM1457.57 491.644C1457.25 491.644 1456.93 491.55 1456.65 491.355L1452.3 488.297C1451.58 487.791 1451.4 486.796 1451.91 486.076C1452.42 485.354 1453.41 485.183 1454.13 485.687L1458.48 488.743C1459.21 489.249 1459.38 490.243 1458.88 490.964C1458.56 491.407 1458.07 491.644 1457.57 491.644ZM1448.86 485.527C1448.54 485.527 1448.22 485.433 1447.94 485.237L1443.59 482.173C1442.87 481.666 1442.69 480.671 1443.2 479.952C1443.71 479.232 1444.7 479.059 1445.42 479.567L1449.78 482.629C1450.5 483.135 1450.67 484.129 1450.16 484.85C1449.85 485.291 1449.36 485.527 1448.86 485.527ZM1440.15 479.398C1439.84 479.398 1439.51 479.304 1439.23 479.106L1434.88 476.038C1434.16 475.53 1433.99 474.535 1434.5 473.816C1435.01 473.096 1436 472.927 1436.72 473.432L1441.07 476.5C1441.79 477.007 1441.96 478.002 1441.46 478.721C1441.15 479.162 1440.65 479.398 1440.15 479.398ZM1431.45 473.258C1431.14 473.258 1430.81 473.163 1430.53 472.966L1426.18 469.891C1425.47 469.383 1425.3 468.388 1425.8 467.669C1426.31 466.951 1427.31 466.781 1428.03 467.288L1432.37 470.361C1433.09 470.869 1433.27 471.864 1432.76 472.583C1432.45 473.023 1431.95 473.258 1431.45 473.258ZM1422.76 467.109C1422.44 467.109 1422.12 467.014 1421.84 466.817L1417.49 463.739C1416.77 463.231 1416.6 462.235 1417.11 461.517C1417.62 460.798 1418.61 460.627 1419.33 461.137L1423.68 464.214C1424.4 464.722 1424.57 465.717 1424.06 466.436C1423.75 466.875 1423.26 467.109 1422.76 467.109ZM1414.06 460.953C1413.74 460.953 1413.42 460.858 1413.14 460.66L1408.79 457.581C1408.07 457.072 1407.9 456.077 1408.41 455.359C1408.92 454.639 1409.91 454.472 1410.63 454.979L1414.98 458.058C1415.7 458.567 1415.87 459.562 1415.36 460.28C1415.05 460.719 1414.56 460.953 1414.06 460.953ZM1405.35 454.796C1405.03 454.796 1404.71 454.701 1404.43 454.504L1400.07 451.428C1399.35 450.921 1399.18 449.927 1399.69 449.207C1400.2 448.488 1401.19 448.315 1401.91 448.822L1406.27 451.901C1406.99 452.409 1407.16 453.404 1406.66 454.123C1406.34 454.561 1405.85 454.796 1405.35 454.796ZM1396.61 448.647C1396.3 448.647 1395.98 448.554 1395.7 448.36C1393.71 446.965 1392.22 445.942 1391.32 445.341C1390.58 444.854 1390.38 443.865 1390.87 443.131C1391.35 442.398 1392.34 442.197 1393.08 442.684C1394 443.293 1395.5 444.331 1397.53 445.746C1398.25 446.25 1398.43 447.244 1397.92 447.966C1397.61 448.409 1397.12 448.647 1396.61 448.647Z" fill="#34929C"/>
</g>
<mask id="mask29_967_444" style="mask-type:luminance" maskUnits="userSpaceOnUse" x="1327" y="376" width="540" height="252">
<path d="M1866.81 422.921C1866.81 422.921 1527.46 395.076 1456.98 380.284C1386.49 365.492 1327.78 397.647 1327.78 397.647V469.786C1327.78 469.786 1510.15 625.16 1591.92 627.204C1673.7 629.248 1844.75 583.59 1846.11 576.094C1847.47 568.598 1846.11 524.302 1839.3 521.577C1832.48 518.851 1606.24 544.747 1602.15 539.977C1599.49 536.879 1561.18 498.42 1527.56 469.787H1866.81V422.921H1866.81Z" fill="white"/>
</mask>
<g mask="url(#mask29_967_444)">
<path d="M1339.77 388.177C1339.77 388.177 1342.76 483.403 1341.26 484.897C1339.77 486.391 1322.96 474.067 1322.96 474.067C1322.96 474.067 1321.01 398.127 1322.59 393.405C1324.17 388.683 1339.77 388.177 1339.77 388.177Z" fill="#34929C"/>
</g>
<mask id="mask30_967_444" style="mask-type:luminance" maskUnits="userSpaceOnUse" x="1327" y="376" width="540" height="252">
<path d="M1866.81 422.921C1866.81 422.921 1527.46 395.076 1456.98 380.284C1386.49 365.492 1327.78 397.647 1327.78 397.647V469.786C1327.78 469.786 1510.15 625.16 1591.92 627.204C1673.7 629.248 1844.75 583.59 1846.11 576.094C1847.47 568.598 1846.11 524.302 1839.3 521.577C1832.48 518.851 1606.24 544.747 1602.15 539.977C1599.49 536.879 1561.18 498.42 1527.56 469.787H1866.81V422.921H1866.81Z" fill="white"/>
</mask>
<g mask="url(#mask30_967_444)">
<path d="M1527.56 469.786C1527.56 469.786 1454.61 409.72 1443.37 406.807C1443.37 406.807 1517.04 423.456 1574.07 439.69C1631.09 455.923 1872.51 452.593 1872.51 452.593V476.735L1527.56 469.786Z" fill="#34929C"/>
</g>
<path d="M1874.3 524.797C1874.3 524.797 1880.1 515.541 1890.95 514.028C1901.79 512.515 1905.32 514.028 1905.32 514.028C1905.32 514.028 1934.44 592.928 1929.15 594.596C1923.87 596.264 1911.92 596.542 1908.31 593.206C1904.69 589.87 1877.28 551.725 1877.28 551.725C1877.28 551.725 1879.05 531.098 1874.3 524.797Z" fill="#34929C"/>
<mask id="mask31_967_444" style="mask-type:luminance" maskUnits="userSpaceOnUse" x="1874" y="513" width="56" height="83">
<path d="M1874.3 524.797C1874.3 524.797 1880.1 515.541 1890.95 514.028C1901.79 512.515 1905.32 514.028 1905.32 514.028C1905.32 514.028 1934.44 592.928 1929.15 594.596C1923.87 596.264 1911.92 596.542 1908.31 593.206C1904.69 589.87 1877.28 551.725 1877.28 551.725C1877.28 551.725 1879.05 531.098 1874.3 524.797Z" fill="white"/>
</mask>
<g mask="url(#mask31_967_444)">
<path d="M1882.48 562.227C1882.48 562.227 1890.22 553.409 1893.94 553.605C1896.25 553.726 1897.24 555.314 1897.66 556.505C1897.92 557.249 1897.74 558.073 1897.23 558.667C1895.06 561.148 1888.75 568.191 1887.38 567.842C1885.71 567.42 1882.48 562.227 1882.48 562.227Z" fill="#34929C"/>
</g>
<mask id="mask32_967_444" style="mask-type:luminance" maskUnits="userSpaceOnUse" x="1874" y="513" width="56" height="83">
<path d="M1874.3 524.797C1874.3 524.797 1880.1 515.541 1890.95 514.028C1901.79 512.515 1905.32 514.028 1905.32 514.028C1905.32 514.028 1934.44 592.928 1929.15 594.596C1923.87 596.264 1911.92 596.542 1908.31 593.206C1904.69 589.87 1877.28 551.725 1877.28 551.725C1877.28 551.725 1879.05 531.098 1874.3 524.797Z" fill="white"/>
</mask>
<g mask="url(#mask32_967_444)">
<path d="M1890.27 573.658C1890.27 573.658 1898.01 564.84 1901.73 565.036C1904.04 565.157 1905.03 566.745 1905.45 567.936C1905.71 568.68 1905.53 569.504 1905.01 570.098C1902.85 572.579 1896.54 579.622 1895.17 579.273C1893.5 578.851 1890.27 573.658 1890.27 573.658Z" fill="#34929C"/>
</g>
<mask id="mask33_967_444" style="mask-type:luminance" maskUnits="userSpaceOnUse" x="1874" y="513" width="56" height="83">
<path d="M1874.3 524.797C1874.3 524.797 1880.1 515.541 1890.95 514.028C1901.79 512.515 1905.32 514.028 1905.32 514.028C1905.32 514.028 1934.44 592.928 1929.15 594.596C1923.87 596.264 1911.92 596.542 1908.31 593.206C1904.69 589.87 1877.28 551.725 1877.28 551.725C1877.28 551.725 1879.05 531.098 1874.3 524.797Z" fill="white"/>
</mask>
<g mask="url(#mask33_967_444)">
<path d="M1897.42 512.082C1897.42 512.082 1924.74 593.846 1924.55 597.261C1924.55 597.261 1933.66 596.692 1933.66 594.415C1933.66 592.138 1911.27 512.461 1908.42 512.082C1905.58 511.703 1897.42 512.082 1897.42 512.082Z" fill="#34929C"/>
</g>
<path d="M1866.81 439.172C1866.81 439.172 1900.35 443.836 1900.98 445.513C1901.61 447.19 1901.73 469.828 1901.73 469.828L1866.81 469.89V439.172Z" fill="#E57492"/>
<path d="M1899.59 444.84C1899.59 444.84 1903.54 434.921 1915.08 434.287C1926.61 433.653 1953.6 448.017 1956.01 449.031C1958.42 450.045 1990.92 458.791 1991.49 459.077C1998.44 462.599 1992.25 470.894 1992.25 470.894L1901.73 469.827L1899.59 444.84Z" fill="#34929C"/>
<mask id="mask34_967_444" style="mask-type:luminance" maskUnits="userSpaceOnUse" x="1899" y="434" width="96" height="37">
<path d="M1899.59 444.84C1899.59 444.84 1903.54 434.921 1915.08 434.287C1926.61 433.653 1953.6 448.017 1956.01 449.031C1958.42 450.045 1990.92 458.791 1991.49 459.077C1998.44 462.599 1992.25 470.894 1992.25 470.894L1901.73 469.827L1899.59 444.84Z" fill="white"/>
</mask>
<g mask="url(#mask34_967_444)">
<path d="M1908.84 434.267C1909.94 435.284 1948.86 453.786 1954.64 454.532C1960.43 455.278 1996.04 464.865 1996.04 464.865C1996.04 464.865 1997.96 459.995 1994.79 458.169C1991.62 456.343 1957.23 448.125 1954.49 446.604C1951.75 445.082 1918.58 431.691 1915.84 432.147C1913.1 432.603 1908.84 434.267 1908.84 434.267Z" fill="#34929C"/>
</g>
<mask id="mask35_967_444" style="mask-type:luminance" maskUnits="userSpaceOnUse" x="1899" y="434" width="96" height="37">
<path d="M1899.59 444.84C1899.59 444.84 1903.54 434.921 1915.08 434.287C1926.61 433.653 1953.6 448.017 1956.01 449.031C1958.42 450.045 1990.92 458.791 1991.49 459.077C1998.44 462.599 1992.25 470.894 1992.25 470.894L1901.73 469.827L1899.59 444.84Z" fill="white"/>
</mask>
<g mask="url(#mask35_967_444)">
<path d="M1918.67 471.663C1919.38 469.097 1921.92 456.694 1923.86 456.267C1925.8 455.839 1930.5 457.122 1930.36 457.835C1930.21 458.548 1929.22 472.091 1926.08 472.091C1922.94 472.091 1918.67 471.663 1918.67 471.663Z" fill="#34929C"/>
</g>
<mask id="mask36_967_444" style="mask-type:luminance" maskUnits="userSpaceOnUse" x="1899" y="434" width="96" height="37">
<path d="M1899.59 444.84C1899.59 444.84 1903.54 434.921 1915.08 434.287C1926.61 433.653 1953.6 448.017 1956.01 449.031C1958.42 450.045 1990.92 458.791 1991.49 459.077C1998.44 462.599 1992.25 470.894 1992.25 470.894L1901.73 469.827L1899.59 444.84Z" fill="white"/>
</mask>
<g mask="url(#mask36_967_444)">
<path d="M1937.1 475.228C1937.81 472.662 1940.36 460.259 1942.29 459.832C1944.23 459.404 1948.93 460.687 1948.79 461.4C1948.65 462.113 1947.65 475.656 1944.51 475.656C1941.38 475.656 1937.1 475.228 1937.1 475.228Z" fill="#34929C"/>
</g>
</svg>
