<svg width="50" height="50" viewBox="0 0 50 50" fill="none" xmlns="http://www.w3.org/2000/svg">
<circle cx="25" cy="25" r="25" fill="white"/>
<path d="M10.0084 23.48C9.16898 23.4767 8.48468 24.1546 8.48001 24.994C8.47535 25.8335 9.15209 26.5167 9.99155 26.52L10.0084 23.48ZM41.6455 26.199C42.2424 25.6078 42.2477 24.6454 41.6575 24.0495L32.0381 14.3384C31.4478 13.7425 30.4854 13.7387 29.8885 14.33C29.2916 14.9212 29.2862 15.8836 29.8765 16.4795L38.4271 25.1116L29.781 33.6761C29.1841 34.2674 29.1787 35.2298 29.769 35.8257C30.3593 36.4216 31.3217 36.4254 31.9186 35.8341L41.6455 26.199ZM9.99155 26.52L40.5682 26.64L40.5851 23.6L10.0084 23.48L9.99155 26.52Z" fill="black"/>
</svg>
