<svg width="64" height="64" viewBox="0 0 64 64" fill="none" xmlns="http://www.w3.org/2000/svg">
<g clip-path="url(#clip0_1016_82)">
<path d="M54.375 16.0625C55.2412 16.7019 56.1075 17.3413 57 18C57.7837 18.5156 58.5675 19.0313 59.375 19.5625C59.9112 20.0369 60.4475 20.5113 61 21C61 21.99 61 22.98 61 24C60.34 24 59.68 24 59 24C59 24.66 59 25.32 59 26C56.2802 25.5971 55.0327 25.0287 52.9375 23.1875C44.3092 16.7622 34.4781 15.8623 24 17C18.9967 18.2752 15.1461 20.0781 11.125 23.3125C9 25 9 25 6.6875 24.75C6.13063 24.5025 5.57375 24.255 5 24C5 20 5 20 6.39844 18.4375C21.3148 7.58922 38.4975 6.35956 54.375 16.0625Z" fill="#2C6C73"/>
<path d="M50.625 27.25C51.4087 27.8275 52.1925 28.405 53 29C52.34 30.32 51.68 31.64 51 33C47 33 47 33 43.75 31C39.5722 28.7929 35.5183 28.5508 30.875 28.5C30.1941 28.482 29.5131 28.4639 28.8115 28.4453C23.7267 28.5047 21.0237 30.0415 17 33C14.625 32.75 14.625 32.75 13 32C13 28 13 28 14.2852 26.586C26.2907 18.4064 38.7243 19.4279 50.625 27.25Z" fill="#56B7C2"/>
<path d="M36 10C45.4466 10.3097 54.2406 14.2406 61 21C61 21.99 61 22.98 61 24C60.34 24 59.68 24 59 24C59 24.66 59 25.32 59 26C56.2802 25.5971 55.0327 25.0287 52.9375 23.1875C45.5773 17.7065 36.9818 16.3475 28 16C28 15.67 28 15.34 28 15C30.64 14.67 33.28 14.34 36 14C36 12.68 36 11.36 36 10Z" fill="#59C9D4"/>
<path d="M39.4961 33.8985C41.3776 34.8443 43.1972 35.9116 45 37C44.34 38.32 43.68 39.64 43 41C39 41 39 41 37 40C35.3783 39.8785 33.7512 39.8246 32.125 39.8125C31.2613 39.7983 30.3977 39.7842 29.5078 39.7695C26.8759 40.0114 25.2602 40.6702 23 42C22.01 41.01 21.02 40.02 20 39C20.945 36.6375 21.5709 35.272 23.75 33.8906C28.6792 31.9395 34.5398 32.1145 39.4961 33.8985Z" fill="#44959D"/>
<path d="M29 22C29 23.32 29 24.64 29 26C30.32 26.33 31.64 26.66 33 27C31.7702 27.2726 31.7702 27.2726 30.5156 27.5508C29.438 27.8022 28.3603 28.0535 27.25 28.3125C26.1827 28.5561 25.1153 28.7998 24.0156 29.0508C21.0575 29.9819 19.4019 31.1128 17 33C14.75 32.6875 14.75 32.6875 13 32C13 28 13 28 14.4258 26.5508C15.3597 25.9378 15.3597 25.9378 16.3125 25.3125C17.2348 24.688 17.2348 24.688 18.1758 24.0508C21.8311 21.9453 24.8739 21.9083 29 22Z" fill="#378891"/>
<path d="M29.75 9.9375C31.5057 9.95104 31.5057 9.95104 33.2969 9.96484C34.1889 9.97645 35.0809 9.98805 36 10C36.5625 11.9375 36.5625 11.9375 37 14C35.0485 15.9515 31.5483 15.7097 28.9375 16.0625C27.6471 16.2391 26.3568 16.4157 25.0273 16.5977C24.0283 16.7304 23.0293 16.8632 22 17C22.33 15.35 22.66 13.7 23 12C21.68 11.67 20.36 11.34 19 11C22.6099 9.8652 25.9842 9.89984 29.75 9.9375Z" fill="#3DA1AC"/>
<path d="M33 33C37.7758 33.4682 41.0448 34.2433 45 37C44.34 38.32 43.68 39.64 43 41C39.6325 41 37.007 40.6857 33.75 40C32.858 39.8144 31.9659 39.6287 31.0469 39.4375C30.0337 39.2209 30.0337 39.2209 29 39C30.32 38.67 31.64 38.34 33 38C33 36.35 33 34.7 33 33Z" fill="#5ABEC8"/>
<path d="M30 46C35.5682 46.5682 35.5682 46.5682 37 48C37.1875 50.4375 37.1875 50.4375 37 53C35 55 35 55 32.5 55.25C30 55 30 55 28 53C27.75 50.5 27.75 50.5 28 48C28.66 47.34 29.32 46.68 30 46Z" fill="#44A5B0"/>
<path d="M23 12C22.875 14.3125 22.875 14.3125 22 17C17.1379 20 17.1379 20 14 20C13.67 18.02 13.34 16.04 13 14C16.4019 11.9065 19.0527 11.8206 23 12Z" fill="#337E86"/>
<path d="M54.0001 16C55.175 16.7583 56.3399 17.5321 57.5001 18.3125C58.4747 18.9564 58.4747 18.9564 59.4689 19.6133C59.9742 20.0709 60.4795 20.5285 61.0001 21C61.0001 21.99 61.0001 22.98 61.0001 24C60.3401 24 59.6801 24 59.0001 24C59.0001 24.66 59.0001 25.32 59.0001 26C57.1251 25.75 57.1251 25.75 55.0001 25C53.1263 22.5016 52.9501 21.3668 53.3751 18.25C53.5814 17.5075 53.7876 16.765 54.0001 16Z" fill="#6ADFE9"/>
<path d="M47 26C49.475 26.99 49.475 26.99 52 28C52 29.32 52 30.64 52 32C50.02 32.99 50.02 32.99 48 34C46.68 32.68 45.36 31.36 44 30C44.99 28.68 45.98 27.36 47 26Z" fill="#60CED8"/>
<path d="M36 10C38.375 9.875 38.375 9.875 41 10C43 12 43 12 43 16C38.05 16 33.1 16 28 16C28 15.67 28 15.34 28 15C30.64 14.67 33.28 14.34 36 14C36 12.68 36 11.36 36 10Z" fill="#54B8C2"/>
<path d="M19 26C18.67 27.98 18.34 29.96 18 32C16.68 32.33 15.36 32.66 14 33C13.34 31.68 12.68 30.36 12 29C14.5004 25.9995 14.7379 26 19 26Z" fill="#347A81"/>
<path d="M33 33C34.65 33.33 36.3 33.66 38 34C38 35.65 38 37.3 38 39C35.03 39 32.06 39 29 39C30.32 38.67 31.64 38.34 33 38C33 36.35 33 34.7 33 33Z" fill="#4CADB8"/>
<path d="M26 33C28.31 33 30.62 33 33 33C33 34.65 33 36.3 33 38C31.02 38.33 29.04 38.66 27 39C26.67 37.02 26.34 35.04 26 33Z" fill="#3B9CA6"/>
<path d="M8 17C8.66 17.33 9.32 17.66 10 18C10 19.98 10 21.96 10 24C8.68 24.33 7.36 24.66 6 25C5.34 23.68 4.68 22.36 4 21C5.32 19.68 6.64 18.36 8 17Z" fill="#2F646A"/>
<path d="M50 14C51.32 14.66 52.64 15.32 54 16C54 17.98 54 19.96 54 22C52.02 21.34 50.04 20.68 48 20C48.66 19.67 49.32 19.34 50 19C50 17.35 50 15.7 50 14Z" fill="#55D5E0"/>
<path d="M23 22C24.98 22 26.96 22 29 22C29 23.32 29 24.64 29 26C30.32 26.33 31.64 26.66 33 27C30.36 27.33 27.72 27.66 25 28C25.33 26.35 25.66 24.7 26 23C25.01 22.67 24.02 22.34 23 22Z" fill="#4099A3"/>
<path d="M19 11C21.31 11 23.62 11 26 11C26 12.65 26 14.3 26 16C24.68 16.33 23.36 16.66 22 17C22.33 15.35 22.66 13.7 23 12C21.68 11.67 20.36 11.34 19 11Z" fill="#44949C"/>
</g>
<defs>
<clipPath id="clip0_1016_82">
<rect width="64" height="64" fill="white"/>
</clipPath>
</defs>
</svg>
