<svg width="172" height="74" viewBox="0 0 172 74" fill="none" xmlns="http://www.w3.org/2000/svg">
<path d="M51.1719 37.8232H58.36L58.8734 39.3636L64.0078 61.6125L64.3501 63.4951V65.2065H64.6924V64.0085L65.5481 60.4144L71.7093 38.3367L71.8805 37.8232H78.8974L80.2666 42.7865L85.2298 62.6393L85.5721 64.8642L86.9413 58.1896L91.0488 40.0481L91.5622 37.8232H98.2369L98.0657 39.3636L93.616 55.9647L89.3373 71.8812L89.1662 72.2235H81.6358L77.186 55.4512L75.3034 48.2631L74.9611 46.3805L74.4477 49.29L69.8267 66.4045L68.2864 72.0523L68.1153 72.2235H60.4137L57.5043 61.6125L51.1719 38.1655V37.8232Z" fill="#1D1E1E"/>
<path d="M11.1245 37.3098H14.8897L17.9703 37.6521L20.8798 38.5078L21.7355 39.3636L21.9066 39.7059V45.1825L21.5643 45.5248L20.7086 45.3537L19.3394 44.6691L17.1145 43.9845L16.0877 43.8133H11.809L9.58415 44.4979L8.55727 45.1825L7.87269 46.3805V48.4343L8.55727 49.4611L10.4399 50.8303L14.3762 52.7129L17.1145 54.0821L19.3394 55.6224L21.0509 57.3338L22.0778 58.5319L22.9335 60.4145L23.2758 61.7836V65.2065L22.7624 67.2603L21.7355 69.1429L20.3663 70.6832L18.1414 72.0523L15.9165 72.9081L13.1782 73.4215L9.75529 73.5927L6.67467 73.4215L3.25176 72.7369L1.02687 71.8812L0.171145 70.8543V64.0085L2.05375 65.2065L4.79207 66.5757L6.84582 67.0891L8.04384 67.2603H10.7822L13.3493 66.7468L14.7185 65.8911L15.4031 64.8642L15.5742 64.3508V62.6393L15.2319 61.4413L14.5474 61.099L12.3225 59.7299L8.04384 57.6761L5.99009 56.6493L4.27864 55.4512L2.56718 53.9109L1.19802 52.0283L0.342291 50.1457L0 48.7766V45.6959L0.684582 43.2999L1.71145 41.5885L3.25176 40.0481L5.47666 38.679L8.55727 37.6521L11.1245 37.3098Z" fill="#34949E"/>
<path d="M36.4531 47.2361H39.0202L41.7586 47.7495L43.8123 48.6052L45.5238 50.1456L46.5506 51.6859L47.2352 53.3973L47.5775 55.2799V72.2233H41.4163L41.2451 68.8004L39.876 70.5119L38.3357 71.7099L36.2819 72.5656L35.4262 72.7368H32.5167L30.463 72.2233L28.7515 71.1965L27.5535 69.9984L26.5266 67.9447L26.3555 67.089V63.6661L26.8689 61.9546L28.0669 60.072L29.9495 58.7028L32.0033 57.8471L34.3993 57.3337L40.9028 56.4779H41.4163L40.9028 54.0819L40.2183 53.055L39.1914 52.3704L37.8222 52.0282H35.4262L33.0301 52.5416L30.8053 53.3973L28.7515 54.4242V49.461L30.8053 48.4341L34.057 47.5784L36.4531 47.2361Z" fill="#19494E"/>
<path d="M51.1719 37.8232H58.36L58.8734 39.3636L64.0078 61.6125L64.3501 63.4951V65.2065H64.6924V64.0085L65.5481 60.4144L71.7093 38.3367L71.8805 37.8232H73.4208L73.5919 38.679V41.9307L73.7631 42.7865V46.2094H74.1054L74.2765 46.894L74.1054 50.488L70.3402 64.5219L68.2864 72.0523L68.1153 72.2235H60.4137L57.5043 61.6125L51.1719 38.1655V37.8232Z" fill="#1C1D1D"/>
<path d="M116.207 37.8232H135.204L135.375 38.5078V43.2999H122.882V52.884H134.348V58.3607H122.882V72.2235H116.207V37.8232Z" fill="#1D1D1D"/>
<path d="M141.538 0H146.33L150.78 0.513437L155.059 1.54031L158.139 2.56718L162.247 4.44978L165.156 6.16124L167.552 7.87269L169.435 9.413L171.66 11.4667L170.633 12.6648L168.237 15.0608L168.066 15.4031H167.21L165.498 13.8628L162.931 11.9802L160.364 10.4399L156.77 8.72842L153.689 7.70155L149.924 6.84582L146.501 6.50353H142.394L138.115 7.01697L134.179 8.04384L131.44 9.07071L128.702 10.4399L126.306 11.809L123.054 14.2051L121.172 15.9165H120.316L117.064 12.6648L116.551 11.809V11.2956L117.92 9.92644L119.803 8.38613L122.712 6.33238L125.279 4.79207L128.018 3.42291L131.954 1.8826L135.377 0.855728L139.484 0.171146L141.538 0Z" fill="#3FB6C3"/>
<path d="M142.391 10.9534H145.643L149.58 11.4668L152.831 12.3225L156.597 13.8628L159.506 15.5743L161.902 17.4569L163.956 19.3395L164.127 20.3664L160.704 23.7893L159.848 23.6181L158.137 22.0778L155.57 20.3664L152.318 18.8261L149.237 17.9703L147.183 17.628H141.878L138.284 18.3126L135.032 19.5106L132.294 21.051L130.24 22.5913L128.871 23.7893L128.015 23.6181L124.763 20.3664L124.25 19.5106L124.592 18.8261L126.646 16.9435L129.727 14.8897L131.78 13.6917L135.203 12.3225L138.455 11.4668L142.391 10.9534Z" fill="#40B7C4"/>
<path d="M11.1245 37.3098H14.8897L17.9703 37.6521L20.8798 38.5078L21.7355 39.3636L21.9066 39.7059V45.1825L21.5643 45.5248L20.7086 45.3537L19.3394 44.6691L17.1146 43.9845L16.0877 43.8133H11.809L9.58415 44.4979L8.55728 45.1825L7.87269 46.3805V48.4343L8.55728 49.4611L9.92644 50.488V57.8473L12.6648 59.2164L14.3762 60.4145L15.0608 61.099L14.8897 61.4413L13.5205 60.4145L9.92644 58.5319L7.18811 57.3338L4.44978 55.6224L2.39604 53.7398L1.19802 52.0283L0.342291 50.1457L0 48.7766V45.6959L0.684582 43.2999L1.71146 41.5885L3.25176 40.0481L5.47666 38.679L8.55728 37.6521L11.1245 37.3098Z" fill="#3FB5C2"/>
<path d="M91.5629 37.8232H98.2375L98.0664 39.3636L93.6166 55.9647L89.338 71.8812L89.1668 72.2235H85.5728L85.4016 68.6294L85.2305 68.4583V65.5488L85.5728 64.8642L86.9419 58.1896L91.0494 40.0481L91.5629 37.8232Z" fill="#1D1E1E"/>
<path d="M51.1719 37.8232H58.36L58.8734 39.3636L62.2963 54.2532V56.8204L61.954 57.505L61.7829 59.2164L61.4406 59.5587L61.0983 63.6662H60.756L60.5849 64.5219L59.9003 64.6931L59.7291 63.1528L59.9003 62.1259H59.558L59.3869 61.4413V66.0623H59.7291L59.3869 66.918H59.0446L58.1888 64.1797L54.4236 50.1457L51.1719 38.1655V37.8232Z" fill="#0B0B0B"/>
<path d="M140.511 47.7495H146.843V72.2233H140.511L140.34 70.683V48.6052L140.511 47.7495Z" fill="#1D1F1F"/>
<path d="M102.343 47.7495H108.675V72.2233H102.343L102.172 51.857V49.2898L102.343 47.7495Z" fill="#313131"/>
<path d="M139.484 0.171143H142.222V4.44978H142.051L141.88 5.6478L138.114 6.16123L134.349 7.01696L130.926 8.21498L126.648 10.4399L123.738 12.4936L121.856 14.0339L120.315 15.4031L119.117 14.3762L116.379 11.6379L117.406 10.4399L119.117 8.89956L122.369 6.50353L126.134 4.27863L130.071 2.56718L133.665 1.36916L136.232 0.684579L139.484 0.171143Z" fill="#216168"/>
<path d="M142.223 22.0779H145.817L148.555 22.5913L151.293 23.6182L154.032 25.1585L156.257 27.2122L156.428 28.068L153.005 31.4909H152.149L150.609 30.2929L148.555 29.266L145.817 28.5814H143.078L140.34 29.266L138.115 30.464L136.746 31.4909L136.061 31.662L134.692 30.464L132.638 28.4103L132.125 27.5545V26.87L133.836 25.3296L135.206 24.3028L137.773 23.1048L140.169 22.4202L142.223 22.0779Z" fill="#34949F"/>
<path d="M34.3993 57.3337H34.7416V58.874L34.5705 59.5586V61.4412L37.3088 60.9278L40.0471 60.5855H41.4163V63.495L40.7317 65.3776L39.5337 66.7467L38.3357 67.6025L37.3088 67.9448H34.9127L34.057 67.6025V71.1965L33.8859 72.7368H32.5167L30.463 72.2234L28.7515 71.1965L27.5535 69.9985L26.5266 67.9448L26.3555 67.089V63.6661L26.8689 61.9547L28.0669 60.0721L29.9495 58.7029L32.0033 57.8472L34.3993 57.3337Z" fill="#216168"/>
<path d="M117.576 46.7227H117.747L117.918 48.7764L118.09 54.9376L117.918 55.9645V57.1625H118.261V54.9376H118.432L118.945 59.3874V60.5854L119.117 60.7566V59.2163L119.459 57.1625L119.117 56.9914L119.288 54.2531L119.63 52.0282L119.972 51.857L120.143 53.5685L120.486 53.2262L120.657 54.9376L120.999 55.2799L121.341 52.8839H121.513V54.7665L121.341 56.6491L121.855 56.478L122.026 56.6491L122.368 56.3068L122.539 57.8471L122.711 55.4511L123.053 55.1088L123.224 55.2799V56.9914L123.053 58.3605L122.882 72.2233H116.207V54.5953H116.378L116.549 53.7396L116.72 51.3436L117.063 52.0282L117.234 55.1088L117.576 46.7227Z" fill="#303232"/>
<path d="M41.9336 47.9207L43.4739 48.4341L44.8431 49.461L46.2122 51.0013L47.068 52.8839L47.5814 55.2799V72.2233H42.447V62.6392L42.2759 62.1257L42.6182 61.9546V57.5048L42.447 56.8202L42.1047 53.055L41.9336 52.8839V47.9207Z" fill="#13373B"/>
<path d="M141.022 11.1243H143.247L143.418 11.2954V16.6009L139.482 17.1144L136.23 17.9701L134.005 18.997L132.123 20.0238L129.727 21.7353L128.186 23.1045L127.502 22.7622L124.25 19.5104L124.592 18.8258L126.646 16.9432L129.727 14.8895L131.78 13.6915L135.203 12.3223L138.455 11.4666L141.022 11.1243Z" fill="#28767E"/>
<path d="M21.3939 57.8472L22.0785 58.5317L22.9342 60.4144L23.2765 61.7835V65.2064L22.7631 67.2602L21.7362 69.1428L20.367 70.6831L18.1422 72.0522L15.9173 72.908L13.1789 73.4214L9.75602 73.5926L6.6754 73.4214L3.25249 72.7368L1.0276 71.8811L0.171875 70.8542V64.0084L2.05448 65.2064L4.7928 66.5756L6.84655 67.089L9.24259 67.4313V72.7368L13.1789 72.3945L16.0884 71.71L18.8267 70.3408L20.367 69.1428L21.5651 67.4313L22.2496 65.7199L22.4208 64.8641V60.9278L21.7362 58.874L21.3939 57.8472Z" fill="#3FB6C3"/>
<path d="M142.907 34.9138H145.132L146.33 35.4273L147.871 36.7964L148.726 38.1656L149.069 39.1925V40.9039L148.384 42.4442L147.357 43.6422L145.988 44.3268L145.474 44.498H143.421L141.709 43.6422L140.511 42.4442L139.656 40.5616L139.484 39.0213L139.827 37.6521L140.682 36.283L142.223 35.085L142.907 34.9138Z" fill="#37A5B1"/>
<path d="M11.1265 37.3098H14.8917L17.9723 37.6521L20.8818 38.5078L21.2241 38.679V45.0114L18.3146 43.6422L16.432 43.1288L15.234 42.9576H11.6399L9.24391 43.4711L9.07276 41.9307L8.90161 41.5885L8.73047 37.6521L11.1265 37.3098Z" fill="#33929C"/>
<path d="M89.8514 48.9475L90.1937 49.1187V52.8839H90.3648V49.1187H90.536L90.7071 51.1724L90.8783 59.7297H91.2206L91.0494 57.5048V53.9107L91.2206 53.055L91.3917 49.6321L91.9051 49.4609V50.8301H91.734V55.6222L91.9051 56.9913L92.2474 56.8202L92.4186 60.4143L89.338 71.881L89.1668 72.2233H85.5728L85.4016 68.6292L85.2305 68.4581V65.5486L85.5728 64.864L86.0862 62.1257L86.4285 62.6391L86.5996 61.7834H86.7708L87.1131 64.864L87.2842 64.0083V61.7834H87.4554V63.4949H87.7977V64.6929H88.1399V63.1526L88.3111 62.9814L88.4822 61.6123V58.1894L88.6534 53.7396L89.1668 54.4242L89.338 54.5953V56.1356L89.1668 56.4779V60.9277L88.9957 61.4411L89.1668 61.7834L89.5091 61.6123L89.8514 63.8372V65.2063L90.1937 65.5486L90.0225 63.3237V55.6222L89.6803 56.9913H89.5091L89.338 53.055H89.8514V48.9475Z" fill="#313232"/>
<path d="M146.157 22.249L148.04 22.4202L150.949 23.447L153.516 24.8162L155.399 26.3565L156.426 27.5545L156.255 28.2391L153.003 31.4909H152.147L150.607 30.2929L148.553 29.266L145.815 28.5814H143.077L140.338 29.266L138.113 30.464L136.744 31.4909L136.06 31.662L134.69 30.464L132.637 28.4103L132.808 28.068L135.546 30.8063L136.402 30.464L137.6 29.4371L139.996 28.2391L141.879 27.7257L143.59 27.5545H144.959L146.842 27.8968V22.4202H146.5V25.5008H146.328L146.157 22.249Z" fill="#3FB6C3"/>
<path d="M160.875 3.93628L161.902 4.27857L165.154 6.16117L167.55 7.87263L169.432 9.41294L171.657 11.4667L170.63 12.6647L168.234 15.0607L168.063 15.403L167.379 15.2319L165.325 13.3493L162.586 11.2955L161.046 10.2687L160.875 3.93628Z" fill="#4DD9E5"/>
<path d="M123.737 52.884H134.348V58.3607H123.395V56.8204L123.566 55.4512L123.737 52.884Z" fill="#1D1D1D"/>
<path d="M40.0492 60.5854H41.4184V63.4949L40.7338 65.3775L39.5358 66.7467L38.3377 67.6024L37.3109 67.9447H34.9148L33.3745 67.2601L32.5188 66.0621L32.3477 65.5487V63.8372L32.8611 62.8103L34.0591 61.7835L35.2571 61.27L40.0492 60.5854Z" fill="#FBFBFB"/>
<path d="M139.482 0.171143H142.221V4.44978H142.049L141.878 5.6478L138.113 6.16124L134.348 7.01696L133.492 7.18811L133.663 1.71145V1.54031L134.348 1.19802L137.086 0.513434L139.482 0.171143Z" fill="#34929C"/>
<path d="M102.343 47.7495H108.333V48.6052L107.82 49.2898H107.477V52.8839L107.649 54.4242H107.82L107.649 56.6491L107.306 59.5586L106.964 60.4143L106.622 59.9008L106.793 57.5048H106.451L106.279 57.1625L106.108 55.4511V57.3337L105.766 57.5048L105.595 54.7665L105.937 52.3704H105.595V54.4242L105.424 55.2799V57.1625H105.081L104.91 58.0182L104.568 57.676L104.397 58.7028V59.9008L104.054 59.7297L103.883 58.0182L104.054 55.9645L103.541 56.1356L103.37 55.2799L103.199 56.1356L102.856 55.4511V53.9107L102.685 52.8839L102.514 53.9107H102.343L102.172 49.2898L102.343 47.7495Z" fill="#1E1E1E"/>
<path d="M141.024 11.1243H143.249L143.42 11.2954V16.6009L139.483 17.1144L136.232 17.9701L135.205 18.3124L135.034 14.0337L134.691 14.2049V13.6915H135.034L135.205 12.3223L138.457 11.4666L141.024 11.1243Z" fill="#34949E"/>
<path d="M133.154 1.54028H134.009L133.838 2.22487L133.667 7.01694L132.811 7.53038L130.244 8.55725L126.65 10.4398H126.479L126.308 5.13434L126.137 4.27861L130.073 2.56716L133.154 1.54028Z" fill="#28767E"/>
<path d="M104.741 35.9407H106.281L107.993 36.6253L109.019 37.8233L109.362 38.679V40.2193L108.677 41.5885L107.479 42.6153L106.623 42.9576H104.57L103.029 42.2731L102.174 41.2462L101.831 40.5616L101.66 39.3636L102.002 37.8233L103.029 36.6253L104.741 35.9407Z" fill="#1C1D1D"/>
<path d="M140.338 5.64771H147.355L151.463 6.33229L155.057 7.35916L157.624 8.38603L161.56 10.4398L163.956 12.1512L165.839 13.6915L167.55 15.2319H167.037L165.497 13.8627L162.929 11.9801L160.362 10.4398L156.768 8.72832L153.688 7.70145L149.922 6.84572L146.5 6.50343H142.392L138.113 7.01687L134.177 8.04374L131.439 9.07062L128.7 10.4398L126.304 11.8089L123.053 14.205L121.17 15.9164H120.314L117.062 12.6647L117.234 12.3224L120.143 15.2319L121.341 14.205L123.737 12.3224L126.133 10.6109L129.214 8.89947L131.781 7.70145L135.546 6.50343L138.969 5.81885L140.338 5.64771Z" fill="#C2C3C3"/>
<path d="M41.4171 63.6663H41.5883L41.4171 68.6295L39.8768 70.5121L38.3365 71.7101L36.2828 72.5658L35.427 72.737H33.8867V68.6295L34.0579 67.6026L34.9136 67.7738H37.3096L38.8499 67.0892L40.2191 65.8912L41.4171 63.6663Z" fill="#194A4F"/>
<path d="M98.0674 38.5078L98.752 38.679L98.5809 40.2193L94.9868 53.7398L91.2216 67.7737L90.0236 72.2235L89.1679 73.0792H82.6643L81.8086 72.2235H89.1679L89.8524 69.314L93.7888 54.5955L97.554 40.5616L98.0674 38.5078Z" fill="#C2C3C3"/>
<path d="M141.876 16.6011H145.813L149.064 17.1145L151.974 17.9702L155.568 19.6817L157.964 21.3931L159.847 23.1046L161.045 22.0777L163.783 19.3394L164.125 19.6817L163.954 20.5374L160.702 23.7892L159.847 23.618L158.135 22.0777L155.568 20.3663L152.316 18.826L149.236 17.9702L147.182 17.6279H141.876L138.282 18.3125L135.03 19.5105L132.292 21.0509L130.238 22.5912L128.869 23.7892L128.013 23.618L124.762 20.3663L124.933 20.024L127.842 22.9335L128.527 22.5912L130.581 20.8797L133.319 19.1683L135.373 18.1414L137.94 17.2857L140.336 16.7722L141.876 16.6011Z" fill="#C2C3C3"/>
<path d="M71.8826 37.8232H73.4229L73.5941 38.679V41.9307L73.7652 42.7865V46.2094H74.1075L74.2786 46.894L74.1075 50.1457L73.7652 49.6323L73.5941 47.2362L73.4229 49.29L73.2518 49.4611L73.0806 50.8303L72.7383 50.1457L72.5672 49.29L72.2249 49.1188L72.0537 45.0114L71.8826 47.4074V51.0014L72.0537 51.5149L71.5403 51.8572L71.0269 50.6592V47.2362L70.8557 46.0382H70.6846V45.1825L70.1711 45.3536L70 44.4979L71.8826 37.8232Z" fill="#0B0B0C"/>
<path d="M141.539 0H146.331L147.358 0.171145L147.529 4.27864H147.187V5.6478H141.881V3.59406H142.052L142.224 0.171145L141.539 0Z" fill="#39A8B4"/>
<path d="M145.475 35.0847L146.331 35.427L147.871 36.7962L148.727 38.1653L149.069 39.1922V40.9037L148.384 42.444L147.358 43.642L145.988 44.3266L145.475 44.4977H143.421L141.71 43.642L140.512 42.444L140.683 42.1017L141.881 43.1286L142.737 43.4708L144.277 43.642H145.304V37.9942L145.475 35.0847Z" fill="#3AABB7"/>
<path d="M142.221 22.0779H145.815L146.5 22.4202H146.842V27.8968L143.59 27.7257H141.879V22.249L142.221 22.0779Z" fill="#37A5B1"/>
<path d="M34.0594 47.5784L34.4017 47.7495L34.2306 48.263L34.5729 52.0282L31.1499 53.2262L28.7539 54.4242V49.461L30.8077 48.4341L34.0594 47.5784Z" fill="#216168"/>
<path d="M74.9622 46.0381H75.1333L75.4756 48.7764H75.1333L74.9622 50.3167L71.197 64.1795L68.9721 72.3945L68.6298 72.9079L68.1163 73.0791H61.4417L60.9282 72.9079L60.5859 72.2233L68.1163 72.0522L71.5392 59.3874L74.4487 48.6053L74.791 46.3804L74.9622 46.0381Z" fill="#C2C3C3"/>
<path d="M134.35 53.5686L134.863 53.7397V58.8741L134.35 59.2164L123.739 59.3876L123.568 59.5587L123.397 72.7369L122.712 73.0792H117.235L116.551 72.3946V72.2235H122.883V58.3607H134.35V53.5686Z" fill="#C2C3C3"/>
<path d="M21.3922 57.8472L22.0768 58.5317L22.9325 60.4144L23.2748 61.7835V65.2064L22.7614 67.2602L21.7345 69.1428L20.3653 70.6831L18.1404 72.0522L15.9155 72.908L13.1772 73.4214L9.7543 73.5926L6.67369 73.4214L3.25078 72.7368L1.02588 71.8811L0.683594 71.1965L2.39505 71.71L5.47567 72.3945L7.18712 72.5657H11.6369L14.8887 72.0522L17.2847 71.1965L19.1673 70.1696L20.5365 68.9716L21.7345 67.089L22.4191 64.8641V60.9278L21.7345 58.874L21.3922 57.8472Z" fill="#C2C3C3"/>
<path d="M89.8533 48.9475L90.1956 49.1187V52.8839H90.3667V49.1187H90.5379L90.709 51.1724L90.8802 59.7297H91.2224L91.0513 57.5048V53.9107L91.2224 53.055L91.3936 49.6321L91.907 49.4609V50.8301H91.7359V55.6222L91.907 56.9913L92.2493 56.8202L92.4205 60.4143L91.0513 65.5486L90.1956 64.864L90.0244 63.3237V55.6222L89.6821 56.9913H89.511L89.3398 53.055H89.8533V48.9475Z" fill="#313232"/>
<path d="M11.1265 37.3098H13.0091L13.1803 39.1924V40.7327L12.838 41.2462L12.6668 41.075V41.9307H12.838V42.7865L10.0996 43.2999L9.24391 43.4711L9.07276 41.9307L8.90161 41.5885L8.73047 37.6521L11.1265 37.3098Z" fill="#38A6B2"/>
<path d="M12.6651 66.9177H13.3497V72.3944L13.1785 72.5655L11.6382 72.7367H9.24219V67.4312L12.6651 66.9177Z" fill="#37A4B0"/>
<path d="M146.841 47.7495L147.183 48.4341L147.526 48.7764V72.5656L146.841 73.079H141.535L140.851 72.7368L140.68 72.2233H146.841V47.7495Z" fill="#C2C3C3"/>
<path d="M108.677 47.7495L109.019 48.4341L109.361 48.7764V72.5656L108.677 73.079H103.371L102.687 72.7368L102.516 72.2233H108.677V47.7495Z" fill="#C2C3C3"/>
<path d="M9.75391 50.6589L10.4385 50.8301L12.4922 51.857L12.6634 52.0281V59.2162L11.8077 58.8739L9.75391 57.847V50.6589Z" fill="#38A6B2"/>
<path d="M139.482 0.171143H142.221V4.44978H142.05L141.878 5.6478L138.456 5.99009L138.284 4.27863L138.113 0.342288L139.482 0.171143Z" fill="#34959F"/>
<path d="M155.913 27.2122H156.255L156.426 28.0679L153.003 31.4908H152.147L150.607 30.2928L148.553 29.2659L145.815 28.5813H143.077L140.338 29.2659L138.113 30.4639L136.744 31.4908L136.06 31.6619L134.69 30.4639L132.637 28.4102L132.808 28.0679L135.546 30.8062L136.402 30.4639L137.6 29.437L139.996 28.239L141.879 27.7256L143.59 27.5544H144.959L147.526 28.0679L150.265 29.437L151.805 30.6351H152.49L155.913 27.2122Z" fill="#C2C3C3"/>
<path d="M142.395 10.9534H145.646L146.673 11.1245L146.844 11.638L146.673 16.7723L143.421 16.6012L143.25 11.2957L142.395 11.1245V10.9534Z" fill="#3BADB9"/>
<path d="M135.376 38.5078H135.719L135.89 38.8501V43.6422L135.719 43.9845L135.205 44.1556L123.739 44.3268L123.567 44.4979L123.396 52.884H122.883V43.2999H135.376V38.5078Z" fill="#C2C3C3"/>
<path d="M46.3787 51.3435L46.8922 51.8569L47.5768 53.2261L48.0902 55.451L48.2613 57.1625V72.3944L47.5768 73.079H42.4424L41.7578 72.5655V72.2233H47.5768L47.4056 55.2799L46.8922 52.8838L46.3787 51.3435Z" fill="#C2C3C3"/>
<path d="M128.186 15.9165H128.357L128.529 16.7722V20.1951L128.871 20.7086V22.42L128.186 23.1046L127.502 22.7623L124.25 19.5106L124.592 18.826L126.646 16.9434L128.186 15.9165Z" fill="#216269"/>
<path d="M21.2207 38.8501L21.9053 39.7058V45.1825L21.563 45.5248L20.7073 45.3536L19.3381 44.669L17.1132 43.9845L16.0863 43.8133H11.8077L9.58281 44.4979L8.55593 45.1825L7.87135 46.3805V48.4342L8.0425 49.1188L7.35792 48.4342L7.01562 47.4074V45.8671L7.70021 44.4979L9.24052 43.471L10.6097 42.9576L11.6366 42.7864H15.2306L17.7978 43.2999L19.8515 44.1556L21.0496 44.8402L21.2207 38.8501Z" fill="#C2C3C3"/>
<path d="M134.693 12.4937H135.206L135.035 13.6917H134.693L134.864 14.034L135.206 13.8628V18.3126L132.468 19.8529H132.297V13.5205L134.693 12.4937Z" fill="#2A7C84"/>
<path d="M15.7437 62.8103H15.9148L16.086 64.1795L15.9148 71.1964L15.7437 71.881L14.2034 72.3945H13.3477V66.7466L14.7168 65.8909L15.4014 64.864L15.7437 62.8103Z" fill="#34949E"/>
<path d="M123.737 52.884H126.304L126.475 54.4243V58.3607H123.395V56.8204L123.566 55.4512L123.737 52.884Z" fill="#1E1E1E"/>
<path d="M141.023 11.1243H143.248L143.419 11.2954V16.6009L140.852 16.7721L141.023 11.1243Z" fill="#37A3AE"/>
<path d="M58.5312 38.3367L59.2158 39.0213L62.8099 54.4243L64.8636 63.3239L64.6925 65.2065H64.3502L63.8368 61.6125L60.2427 46.0382L58.5312 38.679V38.3367Z" fill="#C2C3C3"/>
<path d="M128.019 3.42285H128.362L128.533 6.50347L128.362 8.38607H128.019L128.19 9.58409L126.479 10.4398L126.308 5.13431L126.137 4.27858L128.019 3.42285Z" fill="#267179"/>
<path d="M141.367 35.9407L141.709 36.283V39.5347L141.88 37.481H142.052V41.075H141.88L141.709 42.9576L141.025 42.6153L139.998 41.4173L139.656 40.5616L139.484 39.0213L139.827 37.6521L140.169 36.9675L141.367 35.9407Z" fill="#34959F"/>
<path d="M41.2439 68.6294H41.415V72.2234H41.2439L41.0727 70.512L39.5324 72.0523L37.4787 73.0792L36.4518 73.4215H32.3443L30.2906 72.7369L28.9214 71.71L27.8945 70.6831L28.0657 70.3408L29.4348 71.5389L31.4886 72.3946L32.5155 72.5657H35.4249L37.6498 71.8812L39.019 71.0254L40.217 69.9986L41.2439 68.6294Z" fill="#C2C3C3"/>
<path d="M79.0664 38.5078L79.751 39.1924L83.8585 55.4512L85.9122 63.3239L85.7411 65.3777L85.3988 64.8642L84.7142 61.099L80.0933 42.7864L79.0664 38.8501V38.5078Z" fill="#C2C3C3"/>
<path d="M73.0784 37.8232L73.5918 37.9944V41.9307L73.763 42.7865V46.2094H74.1053L74.2764 46.894L74.1053 50.1457L73.763 49.6323L73.5918 47.2362L73.4207 49.29L73.2495 49.4611L73.0784 50.8303L72.7361 50.1457L72.5649 49.29L72.2227 49.1188V43.471H72.3938L72.5649 45.3536V47.9208L72.7361 48.092L72.9072 39.1924L73.0784 37.8232Z" fill="#0A0A0A"/>
<path d="M77.3594 37.8232H78.8997L79.4131 39.5347L79.242 41.4173L78.8997 43.8133H78.7285L78.5574 42.273V45.0114L78.044 46.5517H77.8728L77.5305 43.6422L77.3594 37.9944V37.8232Z" fill="#0B0B0B"/>
<path d="M40.0492 60.5854H41.4184V61.4412L36.1129 62.1258L34.4014 62.8103L33.3745 64.0084L33.2034 64.3507V66.9178L32.5188 66.0621L32.3477 65.5487V63.8372L32.8611 62.8103L34.0591 61.7835L35.2571 61.27L40.0492 60.5854Z" fill="#C2C3C3"/>
<path d="M35.4254 51.8572H37.8214L39.5329 52.3706L40.7309 53.3975L40.5598 53.7398L38.8483 52.8841H35.2543L32.6871 53.5686L30.291 54.7667L29.4353 55.1089L29.093 54.9378L28.9219 54.2532L31.4891 52.8841L34.2274 52.0283L35.4254 51.8572Z" fill="#C2C3C3"/>
<path d="M21.2227 58.0183L21.7361 58.5317L22.4207 60.2432L22.5918 60.9278V64.8641L21.9072 67.089L21.3938 67.9447L21.2227 67.4313V58.0183Z" fill="#28767F"/>
<path d="M134.52 24.8162H135.034V30.1217L134.349 29.7794L131.953 27.3833L132.295 26.6988L133.836 25.3296L134.52 24.8162Z" fill="#34949E"/>
<path d="M160.877 16.7722L161.904 17.4568L163.787 19.1683L163.445 19.8528L160.877 22.42H160.535V18.826L160.877 18.9971L161.049 19.5105L161.22 18.3125H160.877V16.7722Z" fill="#4CD6E2"/>
<path d="M132.808 52.884H134.348V58.3607H132.637V53.9109L132.808 52.884Z" fill="#202020"/>
<path d="M147.871 37.1387L148.556 37.8233L149.069 39.1924V40.9039L148.384 42.4442L147.358 43.6422L145.988 44.3268L145.475 44.4979H143.421L141.71 43.6422L140.512 42.4442L140.683 42.1019L141.881 43.1288L142.737 43.4711L144.277 43.6422L145.817 43.2999L147.186 42.273L148.042 40.9039L148.384 39.1924L148.042 37.6521L147.871 37.1387Z" fill="#C1C2C3"/>
<path d="M147.526 36.6252L147.868 36.7964L148.382 38.1656L148.553 39.5347L148.04 41.2462L147.355 42.273L146.67 42.9576H146.328V38.1656L146.67 37.1387H146.842V38.1656L147.355 38.3367L147.526 36.6252Z" fill="#3FB5C2"/>
<path d="M13.0056 37.3098H14.8882V39.1924L14.5459 38.8501L14.7171 37.481H14.3748V41.2462L14.2036 42.7865H12.8345L12.4922 42.1019V40.9039L12.8345 41.075L13.0056 40.7327V37.3098Z" fill="#3497A1"/>
<path d="M143.594 11.1243H145.134V13.178L144.963 16.6009H143.594V11.1243Z" fill="#36A3AF"/>
<path d="M89.8511 55.1089L90.1934 55.6223V63.495L90.3645 65.5488L90.0222 65.7199L89.6799 64.8642L89.5088 62.4681L89.1665 61.9547L88.8242 61.2701L88.9954 60.9278V56.4781L89.5088 55.9646L89.6799 56.1358L89.8511 55.1089Z" fill="#202020"/>
<path d="M75.1321 37.8232H76.8435L77.0147 38.5078V40.0481L76.8435 41.4173L76.5012 40.9039H76.159L75.9878 40.3904V43.471H75.4744H75.1321L74.9609 42.7865L75.1321 37.8232Z" fill="#0A0A0A"/>
<path d="M118.775 9.24194H119.117V14.2052L117.919 13.1783L116.379 11.638L117.406 10.44L118.775 9.24194Z" fill="#19494E"/>
<path d="M109.021 37.8232L109.535 38.3367L109.877 39.0213V41.2462L109.021 42.6153L107.823 43.471L107.31 43.6422H104.743L103.374 42.9576L103.031 42.273L104.572 42.7865H106.625L107.994 42.1019L108.85 41.075L109.192 40.2193V38.679L109.021 37.8232Z" fill="#C2C3C3"/>
<path d="M142.221 0.171143H143.419V5.47665L143.248 5.6478H141.879V3.59405H142.05L142.221 0.171143Z" fill="#36A1AC"/>
<path d="M141.88 35.2561H142.565V43.4711L141.538 43.1288L141.709 40.3905V40.2193L141.538 39.5347V36.283H141.196L140.34 36.9676L140.682 36.283L141.88 35.2561Z" fill="#369CA7"/>
<path d="M145.647 22.249L146.845 22.4202V27.8968L145.476 27.7257L145.305 25.5008L145.647 22.249Z" fill="#37A6B2"/>
<path d="M41.9275 63.4949L42.2698 64.1795V69.6561L42.0986 72.2233H41.4141V65.3775L41.5852 63.666L41.9275 63.4949Z" fill="#13373B"/>
<path d="M81.8064 61.0989H81.9776L82.1487 64.8641L82.491 65.0352L82.6621 68.9716V71.0253L82.8333 69.9984H83.0044V72.2233H81.6353L81.293 71.0253L81.4641 69.6562H81.6353L81.8064 70.5119L81.9776 69.9984V67.7736H81.8064L81.6353 64.1795V61.9546L81.8064 61.0989Z" fill="#313232"/>
<path d="M72.2227 37.8232H73.0784V40.7327L72.9072 48.092L72.5649 48.2631L72.3938 47.0651V45.3536L72.2227 43.471V37.8232Z" fill="#1B1B1B"/>
<path d="M2.39453 53.3975L3.59255 54.4243L5.98859 55.9646L10.2672 58.0184L13.0056 59.3876L14.5459 60.5856L15.0593 61.099L14.8882 61.4413L13.519 60.4144L9.92493 58.5318L7.18661 57.3338L4.44828 55.6224L2.39453 53.7398V53.3975Z" fill="#C2C3C3"/>
<path d="M87.6253 66.0623H87.7964L88.1387 71.0255L88.3098 69.6563V68.2871L88.6521 67.6026V69.9986L88.481 72.2235H87.1118L86.9407 70.3409L86.7695 69.1429L86.9407 68.8006L87.1118 66.918L87.4541 67.4314L87.6253 66.0623Z" fill="#1D1D1D"/>
<path d="M142.565 22.249H143.25L143.421 23.9605V27.5545L142.223 27.7257V23.2759L142.565 22.249Z" fill="#34959F"/>
<path d="M142.395 11.1243H143.25L143.421 11.2954V16.6009H142.395V11.1243Z" fill="#34949E"/>
<path d="M131.784 52.884H132.811L132.64 58.3607L131.784 58.1895L131.613 56.9915V53.9109L131.784 52.884Z" fill="#2F2F2F"/>
<path d="M171.487 11.6379L172.001 11.8091V12.6648L168.749 15.9166H167.893L167.551 15.4031H168.064L168.407 14.7186L171.487 11.6379Z" fill="#C2C3C3"/>
<path d="M133.663 1.36914H134.519L134.69 4.44976V6.8458L133.492 7.18809L133.663 1.71143V1.54029V1.36914Z" fill="#2F8992"/>
<path d="M13.8611 66.4045H14.2034V72.3946H13.3477V66.7468L13.8611 66.4045Z" fill="#359DA8"/>
<path d="M92.593 50.1458H92.9353L93.1065 52.8841V55.109L92.9353 56.1358H93.4487L92.7642 59.0453L92.4219 59.7299V53.911L92.593 51.3438V50.1458Z" fill="#303435"/>
<path d="M127.333 53.9106L127.675 54.2529L127.846 57.1624L128.36 57.5047L128.702 56.8201L129.044 58.3604H126.82L126.648 57.6758V55.6221L126.991 55.2798H127.162L127.333 53.9106Z" fill="#323232"/>
<path d="M27.3823 61.0989H27.5535L27.7246 63.4949L27.5535 64.3506L27.3823 67.4313H27.2112L26.8689 65.7198V64.3506H26.5266V67.089H26.3555V63.6661L26.8689 61.9546L27.3823 61.0989Z" fill="#27747C"/>
<path d="M108.335 47.7495H108.678V50.3167L108.335 50.4878L108.164 52.1993H107.822L107.993 54.253L107.48 54.9376L107.309 52.3704L107.48 49.2898L107.822 49.1187L107.993 48.2629L108.335 47.7495Z" fill="#323232"/>
<path d="M69.1423 48.2629H69.3135L69.8269 49.8032V52.7127H69.3135L68.9712 55.4511H68.8001L68.6289 53.3973L68.8001 53.055V48.7764L69.1423 48.2629Z" fill="#0A0A0A"/>
<path d="M42.1047 54.7666H42.447L42.6182 57.1626L42.7893 57.5049V59.2164L42.2759 60.2433L42.1047 63.3239H41.9336V54.9377L42.1047 54.7666Z" fill="#164146"/>
<path d="M128.189 15.9165H128.36L128.532 16.7722V20.1951L128.874 20.7086V22.42L128.189 22.7623V22.42H127.847V17.628L127.676 17.2857V16.2588L128.189 15.9165Z" fill="#216168"/>
<path d="M125.449 52.884H126.305L126.476 54.4243V58.3607H125.963L125.792 55.6224L125.449 55.9647V52.884Z" fill="#303030"/>
<path d="M133.493 25.6719H133.836V28.9236L133.151 28.5813L131.953 27.3833L132.295 26.6987L133.493 25.6719Z" fill="#2E858E"/>
<path d="M88.6516 53.7397L89.1651 54.4243L89.3362 54.5955V56.1358L89.1651 56.4781V60.9279L88.6516 61.4413L88.4805 58.1895L88.6516 53.7397Z" fill="#323232"/>
<path d="M135.033 12.4937H135.204L135.033 13.6917H134.691L134.862 14.034L135.204 13.8628V18.3126L134.52 18.4837V13.0071L135.033 12.4937Z" fill="#28767E"/>
<path d="M142.395 10.9534H145.646L145.304 11.1245L145.475 14.7186L145.646 14.8897V16.2589L145.475 16.6012H144.962V13.1783L145.133 11.1245H143.593V16.6012H143.421L143.25 11.2957L142.395 11.1245V10.9534Z" fill="#56BCC7"/>
<path d="M79.4102 42.6152L80.2659 42.7864V45.3536H80.0947L79.9236 44.8401L80.0947 45.5247V48.0919L79.7524 48.4342V47.5785H79.4102V42.6152Z" fill="#0A0B0B"/>
<path d="M91.7346 37.9944H91.9058L92.0769 40.0481L91.7346 40.2193L91.5635 44.6691L91.0501 44.8402L90.8789 44.1556L91.0501 42.7865V40.0481L91.5635 38.1655L91.7346 37.9944Z" fill="#0B0C0C"/>
<path d="M127.335 16.4299H127.677L128.02 17.628V21.9066L127.849 22.42H128.191L128.362 22.9335H127.677L127.506 22.7623V18.9971L127.164 19.5106L127.335 16.4299Z" fill="#28757D"/>
<path d="M13.6914 37.3098H14.8894V39.1924L14.5471 38.8501L14.7183 37.481H14.376V41.2462L14.2048 42.7865H14.0337V41.2462H13.6914V37.3098Z" fill="#36A2AD"/>
<path d="M134.69 12.4937L135.032 12.6648L134.69 13.0071V18.6549L134.006 18.4837V13.6917L133.834 13.1782L133.492 13.0071L134.69 12.4937Z" fill="#36959F"/>
<path d="M15.7446 62.8103H15.9158L16.0869 64.1795L15.9158 71.1964L15.7446 71.881H15.4023L15.5735 64.3506L15.7446 62.8103Z" fill="#37A4B0"/>
<path d="M89.1665 60.7566L90.0222 60.9277L90.1934 61.4412V63.4949L90.3645 65.5487L90.0222 65.7198L89.6799 64.8641L89.5088 62.468L89.1665 61.9546L88.8242 61.27L89.1665 60.7566Z" fill="#1D1D1D"/>
<path d="M108.162 49.9746L108.675 50.3169V55.109H108.504L108.333 53.911L108.162 54.4244L107.82 54.2532L107.648 52.1995L107.991 52.0284L108.162 49.9746Z" fill="#1D1D1D"/>
<path d="M0.513437 43.8132H0.684582V46.7227L0.513437 49.9745L0.171146 49.461L0 48.7765V45.6958L0.513437 43.8132Z" fill="#4CCDD9"/>
<path d="M94.3008 37.8232H95.4988V38.8501H95.1565L95.3277 40.0481L94.9854 40.9039L94.3008 40.5616V37.8232Z" fill="#0C0C0C"/>
<path d="M126.991 4.10742H127.162V10.0975L126.648 10.2687V5.99002L126.82 4.27857L126.991 4.10742Z" fill="#216168"/>
<path d="M141.539 11.2957H142.052V16.43L141.539 16.6012V11.2957Z" fill="#34949E"/>
<path d="M70.5142 49.9746H70.6853L71.0276 55.2801L70.6853 55.109L70.5142 54.2532H70.1719V50.6592L70.5142 49.9746Z" fill="#0A0A0A"/>
<path d="M8.73047 37.6521H9.41505V43.471H9.24391L9.07276 41.9307L8.90161 41.5884L8.73047 37.6521Z" fill="#37A4B0"/>
<path d="M123.737 52.884L124.079 53.0552V58.3607H123.395V56.8204L123.566 55.4512L123.737 52.884Z" fill="#323232"/>
<path d="M144.961 22.0779H145.817L145.474 25.6719V27.7257L144.961 27.5545V22.0779Z" fill="#3FB8C5"/>
<path d="M79.7532 63.1528L80.2666 63.6663L80.6089 63.8374V67.0892H80.2666L79.582 64.3509L79.7532 63.1528Z" fill="#313434"/>
<path d="M84.0305 68.9717H84.3728L84.7151 69.8274L84.544 72.2234H83.8594V69.1428L84.0305 68.9717Z" fill="#323232"/>
<path d="M20.1946 58.3606H20.8792H21.0503V60.2432H20.3657V60.9278L20.8792 61.0989V61.4412H20.5369L20.3657 61.9547L20.1946 61.6124L20.0234 59.2163L20.1946 58.3606Z" fill="#28757D"/>
<path d="M147.699 37.1387L148.213 37.6521L148.555 39.5347L148.042 41.2462L147.699 41.5885V40.0481L147.87 39.877L147.699 37.1387Z" fill="#37A4B0"/>
<path d="M145.305 11.1243H145.647L145.818 12.8357V16.6009H145.476V14.8895L145.305 14.7183V11.1243Z" fill="#37A4B0"/>
<path d="M9.41406 50.3167L9.9275 50.4878L9.75635 56.1356L9.41406 55.9645V50.3167Z" fill="#40B6C3"/>
<path d="M142.738 67.4314H142.909L143.08 69.4851V72.0523L142.738 72.2235L142.566 71.71V67.9448L142.738 67.4314Z" fill="#323232"/>
<path d="M134.862 24.8162H135.033V30.1217L134.52 29.9505V25.1585L134.862 24.8162Z" fill="#28757E"/>
<path d="M142.221 22.0779H143.762L143.419 22.7625L143.248 22.249L142.563 22.4202L142.392 23.2759L142.221 27.7257L141.879 27.5545V22.249L142.221 22.0779Z" fill="#39A9B5"/>
<path d="M8.38599 49.8035L8.72828 49.9746L8.89943 50.3169V54.4244L8.38599 54.9378L8.21484 53.911L8.38599 52.5418H8.72828L8.55713 50.6592H8.38599V49.8035Z" fill="#37A4B0"/>
<path d="M104.059 47.7495H104.914L104.743 49.6321H104.572L104.401 51.5147H104.23L104.059 50.4878V47.7495Z" fill="#2E2E2E"/>
<path d="M138.113 0.342285H138.969L138.627 0.513431L138.798 4.27863L138.627 5.99009H138.456L138.284 4.27863L138.113 0.342285Z" fill="#3CA6B2"/>
<path d="M128.016 3.42285H128.358L128.529 6.50347L128.358 8.38607L128.016 8.21493V3.42285Z" fill="#216168"/>
<path d="M143.249 12.4937H143.42V16.6011H142.906V13.1782L143.249 12.4937Z" fill="#36A2AE"/>
<path d="M145.132 13.1782H145.303L145.474 14.7185L145.646 14.8897V16.2588L145.474 16.6011H144.961V13.3494L145.132 13.1782Z" fill="#3FB6C3"/>
<path d="M132.809 26.1853L133.151 26.5276L133.322 27.7256L132.98 28.4102L131.953 27.3833L132.295 26.6987L132.809 26.1853Z" fill="#2F8891"/>
<path d="M87.1126 57.5049L87.4548 58.0183L87.7971 57.5049L87.626 61.6124L87.2837 61.4412L87.1126 58.874L86.9414 58.1895L87.1126 57.5049Z" fill="#313434"/>
<path d="M126.65 4.10742H126.821L126.65 10.4398H126.479L126.308 5.13429L126.137 4.27857L126.65 4.10742Z" fill="#28757D"/>
<path d="M159.339 3.25171L160.024 3.594L159.853 6.67462L159.51 7.01691V5.30545H159.168V4.27858H159.51L159.339 3.25171Z" fill="#4EDAE6"/>
<path d="M143.936 69.8271L144.278 69.9983L144.449 70.5117V72.2232H143.594V71.1963L143.936 69.8271Z" fill="#323232"/>
<path d="M107.136 36.4539H107.478L107.649 36.7961V38.5076L107.136 40.0479H106.965L107.136 36.4539Z" fill="#0A0A0A"/>
<path d="M62.4648 56.8203H62.8071L63.1494 57.8472L62.9783 60.4144L62.636 59.9009L62.4648 56.8203Z" fill="#0D1111"/>
<path d="M58.1868 60.5854L58.5291 61.0989V64.6929L58.1868 64.1795L58.0156 63.1526L58.1868 60.5854Z" fill="#1E2122"/>
<path d="M141.71 40.3904L142.224 40.9038V43.2999L141.539 42.9576L141.71 40.3904Z" fill="#36A2AD"/>
<path d="M78.5547 37.8232H78.897L79.4104 39.5347V40.0481H79.0681L78.897 40.5616L78.7258 39.7058H78.5547V37.8232Z" fill="#1D2121"/>
<path d="M41.7564 68.4583H41.9275V72.2235H41.4141V70.3409H41.5852L41.7564 68.4583Z" fill="#174348"/>
<path d="M103.374 51.0015H103.545L103.716 52.8841L103.374 53.0552L103.031 53.7398V51.1726L103.374 51.0015Z" fill="#313131"/>
<path d="M132.98 37.8232H134.007V38.8501L133.152 39.1924L132.98 39.0213V37.8232Z" fill="#0A0A0A"/>
<path d="M10.7844 67.2603H11.6402L11.1267 67.4314V71.1966H10.9556L10.7844 68.6294L10.6133 68.4583V67.4314L10.7844 67.2603Z" fill="#45B7C3"/>
<path d="M130.926 37.8232H131.439V40.5616L131.097 40.7327L130.926 39.877V37.8232Z" fill="#0A0A0A"/>
<path d="M141.366 1.198H141.537V5.64778H141.366L141.195 4.62091H141.023V3.42289L141.195 3.25174L141.366 1.198Z" fill="#37A4B0"/>
<path d="M156.426 2.05371L157.11 2.22486L156.939 4.96318H156.597L156.426 2.05371Z" fill="#4EDAE6"/>
<path d="M125.446 56.3069L125.789 56.9915V58.3606H124.762L124.933 57.3338H125.275L125.446 56.3069Z" fill="#323232"/>
<path d="M85.9141 68.4583H86.0852L86.2564 70.8543H86.4275V72.2235H85.9141V68.4583Z" fill="#1D1D1D"/>
<path d="M129.215 37.8232H129.728V39.7058L129.386 40.3904H129.215V37.8232Z" fill="#0A0A0A"/>
<path d="M61.9563 64.8643L62.2986 65.0354L62.4697 65.72V67.0891L62.1274 67.2603V66.7469L61.7852 66.5757L61.9563 64.8643Z" fill="#0A0A0A"/>
<path d="M106.964 53.0549H107.135L107.306 53.9107V55.9644H106.964L106.793 53.3972L106.964 53.0549Z" fill="#323232"/>
<path d="M74.2766 46.8938H74.4478L74.6189 48.6053L74.2766 49.9744H74.1055V47.0649L74.2766 46.8938Z" fill="#202B2D"/>
<path d="M120.484 61.0989H120.656L120.998 62.8103V64.0084L120.827 64.8641H120.656L120.484 62.9815V61.0989Z" fill="#1D1D1D"/>
<path d="M107.991 57.1626H108.162V59.2163L107.82 60.4144H107.648V58.7029L107.991 57.1626Z" fill="#1D1D1D"/>
<path d="M105.596 52.3706H105.938V53.7398L105.596 55.4512L105.254 55.1089L105.425 53.5686L105.596 52.3706Z" fill="#323232"/>
<path d="M13.8626 52.5417L14.2048 53.2263V55.4512H13.8626L13.6914 53.5686L13.8626 52.5417Z" fill="#37A4B0"/>
<path d="M85.7415 64.5217H85.9126V65.3775L86.2549 65.5486L86.0837 66.9178L85.5703 66.7466L85.7415 64.5217Z" fill="#1D1D1D"/>
<path d="M142.223 64.5217L142.565 64.6929L142.907 66.7466H142.394L142.223 64.5217Z" fill="#323232"/>
<path d="M129.726 55.1089H129.897L130.068 57.5049L130.239 57.8472L130.068 58.3607H129.726L129.555 55.4512L129.726 55.1089Z" fill="#323232"/>
<path d="M108.502 37.4807H108.674V40.219L108.16 40.0479L108.331 38.3364L108.502 37.4807Z" fill="#0A0A0A"/>
<path d="M147.699 37.1387L148.213 37.6521L148.384 39.1924L148.042 39.7059L147.699 38.1655V37.1387Z" fill="#3AACB8"/>
<path d="M63.1523 59.9009L63.6658 60.072V61.6123L63.3235 61.7835L63.1523 61.4412V59.9009Z" fill="#0D0F10"/>
<path d="M8.55786 55.28L8.90016 55.9646V57.3338H8.38672V55.7935L8.55786 55.28Z" fill="#37A4B0"/>
<path d="M92.4219 42.1018L92.9353 42.6152V44.3267H92.4219V42.1018Z" fill="#0A0A0A"/>
<path d="M62.2961 54.9375L62.6384 55.6221L62.8096 56.8201L62.4673 56.9912L62.2961 58.0181H62.125L62.2961 54.9375Z" fill="#182122"/>
<path d="M132.808 26.1853L133.15 26.5276L133.321 27.7256L132.979 28.4102L132.637 27.8968L132.808 26.1853Z" fill="#34949E"/>
<path d="M93.7876 52.3706H93.9587L94.1299 54.0821L93.7876 55.2801L93.4453 54.5955L93.7876 52.3706Z" fill="#303B3D"/>
<path d="M92.5898 37.8232H93.2744V39.3636L92.9321 39.1924V38.679H92.5898V37.8232Z" fill="#0A0A0A"/>
<path d="M144.277 66.0623H144.619V68.116H144.277L144.105 66.7468L144.277 66.0623Z" fill="#323232"/>
<path d="M62.468 62.6392H62.8103L62.9815 64.0083L62.468 64.5218L62.2969 64.1795L62.468 62.6392Z" fill="#0A0A0A"/>
<path d="M133.323 26.0142H133.494V28.5813H133.152V27.041L132.98 26.3565L133.323 26.0142Z" fill="#28767E"/>
<path d="M51.1719 37.8232H58.36L58.8734 39.3636L64.0078 61.6125L64.3501 63.4951V65.2065H64.6924V64.0085L65.5481 60.4144L71.7093 38.3367L71.8805 37.8232H78.8974L80.2666 42.7865L85.2298 62.6393L85.5721 64.8642L86.9413 58.1896L91.0488 40.0481L91.5622 37.8232H98.2369L98.0657 39.3636L93.616 55.9647L89.3373 71.8812L89.1662 72.2235H81.6358L77.186 55.4512L75.3034 48.2631L74.9611 46.3805L74.4477 49.29L69.8267 66.4045L68.2864 72.0523L68.1153 72.2235H60.4137L57.5043 61.6125L51.1719 38.1655V37.8232Z" fill="#1D1E1E"/>
<path d="M11.1245 37.3098H14.8897L17.9703 37.6521L20.8798 38.5078L21.7355 39.3636L21.9066 39.7059V45.1825L21.5643 45.5248L20.7086 45.3537L19.3394 44.6691L17.1145 43.9845L16.0877 43.8133H11.809L9.58415 44.4979L8.55727 45.1825L7.87269 46.3805V48.4343L8.55727 49.4611L10.4399 50.8303L14.3762 52.7129L17.1145 54.0821L19.3394 55.6224L21.0509 57.3338L22.0778 58.5319L22.9335 60.4145L23.2758 61.7836V65.2065L22.7624 67.2603L21.7355 69.1429L20.3663 70.6832L18.1414 72.0523L15.9165 72.9081L13.1782 73.4215L9.75529 73.5927L6.67467 73.4215L3.25176 72.7369L1.02687 71.8812L0.171145 70.8543V64.0085L2.05375 65.2065L4.79207 66.5757L6.84582 67.0891L8.04384 67.2603H10.7822L13.3493 66.7468L14.7185 65.8911L15.4031 64.8642L15.5742 64.3508V62.6393L15.2319 61.4413L14.5474 61.099L12.3225 59.7299L8.04384 57.6761L5.99009 56.6493L4.27864 55.4512L2.56718 53.9109L1.19802 52.0283L0.342291 50.1457L0 48.7766V45.6959L0.684582 43.2999L1.71145 41.5885L3.25176 40.0481L5.47666 38.679L8.55727 37.6521L11.1245 37.3098Z" fill="#34949E"/>
<path d="M36.4531 47.2361H39.0202L41.7586 47.7495L43.8123 48.6052L45.5238 50.1456L46.5506 51.6859L47.2352 53.3973L47.5775 55.2799V72.2233H41.4163L41.2451 68.8004L39.876 70.5119L38.3357 71.7099L36.2819 72.5656L35.4262 72.7368H32.5167L30.463 72.2233L28.7515 71.1965L27.5535 69.9984L26.5266 67.9447L26.3555 67.089V63.6661L26.8689 61.9546L28.0669 60.072L29.9495 58.7028L32.0033 57.8471L34.3993 57.3337L40.9028 56.4779H41.4163L40.9028 54.0819L40.2183 53.055L39.1914 52.3704L37.8222 52.0282H35.4262L33.0301 52.5416L30.8053 53.3973L28.7515 54.4242V49.461L30.8053 48.4341L34.057 47.5784L36.4531 47.2361Z" fill="#19494E"/>
<path d="M51.1719 37.8232H58.36L58.8734 39.3636L64.0078 61.6125L64.3501 63.4951V65.2065H64.6924V64.0085L65.5481 60.4144L71.7093 38.3367L71.8805 37.8232H73.4208L73.5919 38.679V41.9307L73.7631 42.7865V46.2094H74.1054L74.2765 46.894L74.1054 50.488L70.3402 64.5219L68.2864 72.0523L68.1153 72.2235H60.4137L57.5043 61.6125L51.1719 38.1655V37.8232Z" fill="#1C1D1D"/>
<path d="M116.207 37.8232H135.204L135.375 38.5078V43.2999H122.882V52.884H134.348V58.3607H122.882V72.2235H116.207V37.8232Z" fill="#1D1D1D"/>
<path d="M141.538 0H146.33L150.78 0.513437L155.059 1.54031L158.139 2.56718L162.247 4.44978L165.156 6.16124L167.552 7.87269L169.435 9.413L171.66 11.4667L170.633 12.6648L168.237 15.0608L168.066 15.4031H167.21L165.498 13.8628L162.931 11.9802L160.364 10.4399L156.77 8.72842L153.689 7.70155L149.924 6.84582L146.501 6.50353H142.394L138.115 7.01697L134.179 8.04384L131.44 9.07071L128.702 10.4399L126.306 11.809L123.054 14.2051L121.172 15.9165H120.316L117.064 12.6648L116.551 11.809V11.2956L117.92 9.92644L119.803 8.38613L122.712 6.33238L125.279 4.79207L128.018 3.42291L131.954 1.8826L135.377 0.855728L139.484 0.171146L141.538 0Z" fill="#3FB6C3"/>
<path d="M142.391 10.9534H145.643L149.58 11.4668L152.831 12.3225L156.597 13.8628L159.506 15.5743L161.902 17.4569L163.956 19.3395L164.127 20.3664L160.704 23.7893L159.848 23.6181L158.137 22.0778L155.57 20.3664L152.318 18.8261L149.237 17.9703L147.183 17.628H141.878L138.284 18.3126L135.032 19.5106L132.294 21.051L130.24 22.5913L128.871 23.7893L128.015 23.6181L124.763 20.3664L124.25 19.5106L124.592 18.8261L126.646 16.9435L129.727 14.8897L131.78 13.6917L135.203 12.3225L138.455 11.4668L142.391 10.9534Z" fill="#40B7C4"/>
<path d="M11.1245 37.3098H14.8897L17.9703 37.6521L20.8798 38.5078L21.7355 39.3636L21.9066 39.7059V45.1825L21.5643 45.5248L20.7086 45.3537L19.3394 44.6691L17.1146 43.9845L16.0877 43.8133H11.809L9.58415 44.4979L8.55728 45.1825L7.87269 46.3805V48.4343L8.55728 49.4611L9.92644 50.488V57.8473L12.6648 59.2164L14.3762 60.4145L15.0608 61.099L14.8897 61.4413L13.5205 60.4145L9.92644 58.5319L7.18811 57.3338L4.44978 55.6224L2.39604 53.7398L1.19802 52.0283L0.342291 50.1457L0 48.7766V45.6959L0.684582 43.2999L1.71146 41.5885L3.25176 40.0481L5.47666 38.679L8.55728 37.6521L11.1245 37.3098Z" fill="#3FB5C2"/>
<path d="M91.5629 37.8232H98.2375L98.0664 39.3636L93.6166 55.9647L89.338 71.8812L89.1668 72.2235H85.5728L85.4016 68.6294L85.2305 68.4583V65.5488L85.5728 64.8642L86.9419 58.1896L91.0494 40.0481L91.5629 37.8232Z" fill="#1D1E1E"/>
<path d="M51.1719 37.8232H58.36L58.8734 39.3636L62.2963 54.2532V56.8204L61.954 57.505L61.7829 59.2164L61.4406 59.5587L61.0983 63.6662H60.756L60.5849 64.5219L59.9003 64.6931L59.7291 63.1528L59.9003 62.1259H59.558L59.3869 61.4413V66.0623H59.7291L59.3869 66.918H59.0446L58.1888 64.1797L54.4236 50.1457L51.1719 38.1655V37.8232Z" fill="#0B0B0B"/>
<path d="M140.511 47.7495H146.843V72.2233H140.511L140.34 70.683V48.6052L140.511 47.7495Z" fill="#1D1F1F"/>
<path d="M102.343 47.7495H108.675V72.2233H102.343L102.172 51.857V49.2898L102.343 47.7495Z" fill="#313131"/>
<path d="M139.484 0.171143H142.222V4.44978H142.051L141.88 5.6478L138.114 6.16123L134.349 7.01696L130.926 8.21498L126.648 10.4399L123.738 12.4936L121.856 14.0339L120.315 15.4031L119.117 14.3762L116.379 11.6379L117.406 10.4399L119.117 8.89956L122.369 6.50353L126.134 4.27863L130.071 2.56718L133.665 1.36916L136.232 0.684579L139.484 0.171143Z" fill="#216168"/>
<path d="M142.223 22.0779H145.817L148.555 22.5913L151.293 23.6182L154.032 25.1585L156.257 27.2122L156.428 28.068L153.005 31.4909H152.149L150.609 30.2929L148.555 29.266L145.817 28.5814H143.078L140.34 29.266L138.115 30.464L136.746 31.4909L136.061 31.662L134.692 30.464L132.638 28.4103L132.125 27.5545V26.87L133.836 25.3296L135.206 24.3028L137.773 23.1048L140.169 22.4202L142.223 22.0779Z" fill="#34949F"/>
<path d="M34.3993 57.3337H34.7416V58.874L34.5705 59.5586V61.4412L37.3088 60.9278L40.0471 60.5855H41.4163V63.495L40.7317 65.3776L39.5337 66.7467L38.3357 67.6025L37.3088 67.9448H34.9127L34.057 67.6025V71.1965L33.8859 72.7368H32.5167L30.463 72.2234L28.7515 71.1965L27.5535 69.9985L26.5266 67.9448L26.3555 67.089V63.6661L26.8689 61.9547L28.0669 60.0721L29.9495 58.7029L32.0033 57.8472L34.3993 57.3337Z" fill="#216168"/>
<path d="M117.576 46.7227H117.747L117.918 48.7764L118.09 54.9376L117.918 55.9645V57.1625H118.261V54.9376H118.432L118.945 59.3874V60.5854L119.117 60.7566V59.2163L119.459 57.1625L119.117 56.9914L119.288 54.2531L119.63 52.0282L119.972 51.857L120.143 53.5685L120.486 53.2262L120.657 54.9376L120.999 55.2799L121.341 52.8839H121.513V54.7665L121.341 56.6491L121.855 56.478L122.026 56.6491L122.368 56.3068L122.539 57.8471L122.711 55.4511L123.053 55.1088L123.224 55.2799V56.9914L123.053 58.3605L122.882 72.2233H116.207V54.5953H116.378L116.549 53.7396L116.72 51.3436L117.063 52.0282L117.234 55.1088L117.576 46.7227Z" fill="#303232"/>
<path d="M41.9336 47.9207L43.4739 48.4341L44.8431 49.461L46.2122 51.0013L47.068 52.8839L47.5814 55.2799V72.2233H42.447V62.6392L42.2759 62.1257L42.6182 61.9546V57.5048L42.447 56.8202L42.1047 53.055L41.9336 52.8839V47.9207Z" fill="#13373B"/>
<path d="M141.022 11.1243H143.247L143.418 11.2954V16.6009L139.482 17.1144L136.23 17.9701L134.005 18.997L132.123 20.0238L129.727 21.7353L128.186 23.1045L127.502 22.7622L124.25 19.5104L124.592 18.8258L126.646 16.9432L129.727 14.8895L131.78 13.6915L135.203 12.3223L138.455 11.4666L141.022 11.1243Z" fill="#28767E"/>
<path d="M21.3939 57.8472L22.0785 58.5317L22.9342 60.4144L23.2765 61.7835V65.2064L22.7631 67.2602L21.7362 69.1428L20.367 70.6831L18.1422 72.0522L15.9173 72.908L13.1789 73.4214L9.75602 73.5926L6.6754 73.4214L3.25249 72.7368L1.0276 71.8811L0.171875 70.8542V64.0084L2.05448 65.2064L4.7928 66.5756L6.84655 67.089L9.24259 67.4313V72.7368L13.1789 72.3945L16.0884 71.71L18.8267 70.3408L20.367 69.1428L21.5651 67.4313L22.2496 65.7199L22.4208 64.8641V60.9278L21.7362 58.874L21.3939 57.8472Z" fill="#3FB6C3"/>
<path d="M142.907 34.9138H145.132L146.33 35.4273L147.871 36.7964L148.726 38.1656L149.069 39.1925V40.9039L148.384 42.4442L147.357 43.6422L145.988 44.3268L145.474 44.498H143.421L141.709 43.6422L140.511 42.4442L139.656 40.5616L139.484 39.0213L139.827 37.6521L140.682 36.283L142.223 35.085L142.907 34.9138Z" fill="#37A5B1"/>
<path d="M11.1265 37.3098H14.8917L17.9723 37.6521L20.8818 38.5078L21.2241 38.679V45.0114L18.3146 43.6422L16.432 43.1288L15.234 42.9576H11.6399L9.24391 43.4711L9.07276 41.9307L8.90161 41.5885L8.73047 37.6521L11.1265 37.3098Z" fill="#33929C"/>
<path d="M89.8514 48.9475L90.1937 49.1187V52.8839H90.3648V49.1187H90.536L90.7071 51.1724L90.8783 59.7297H91.2206L91.0494 57.5048V53.9107L91.2206 53.055L91.3917 49.6321L91.9051 49.4609V50.8301H91.734V55.6222L91.9051 56.9913L92.2474 56.8202L92.4186 60.4143L89.338 71.881L89.1668 72.2233H85.5728L85.4016 68.6292L85.2305 68.4581V65.5486L85.5728 64.864L86.0862 62.1257L86.4285 62.6391L86.5996 61.7834H86.7708L87.1131 64.864L87.2842 64.0083V61.7834H87.4554V63.4949H87.7977V64.6929H88.1399V63.1526L88.3111 62.9814L88.4822 61.6123V58.1894L88.6534 53.7396L89.1668 54.4242L89.338 54.5953V56.1356L89.1668 56.4779V60.9277L88.9957 61.4411L89.1668 61.7834L89.5091 61.6123L89.8514 63.8372V65.2063L90.1937 65.5486L90.0225 63.3237V55.6222L89.6803 56.9913H89.5091L89.338 53.055H89.8514V48.9475Z" fill="#313232"/>
<path d="M146.157 22.249L148.04 22.4202L150.949 23.447L153.516 24.8162L155.399 26.3565L156.426 27.5545L156.255 28.2391L153.003 31.4909H152.147L150.607 30.2929L148.553 29.266L145.815 28.5814H143.077L140.338 29.266L138.113 30.464L136.744 31.4909L136.06 31.662L134.69 30.464L132.637 28.4103L132.808 28.068L135.546 30.8063L136.402 30.464L137.6 29.4371L139.996 28.2391L141.879 27.7257L143.59 27.5545H144.959L146.842 27.8968V22.4202H146.5V25.5008H146.328L146.157 22.249Z" fill="#3FB6C3"/>
<path d="M160.875 3.93628L161.902 4.27857L165.154 6.16117L167.55 7.87263L169.432 9.41294L171.657 11.4667L170.63 12.6647L168.234 15.0607L168.063 15.403L167.379 15.2319L165.325 13.3493L162.586 11.2955L161.046 10.2687L160.875 3.93628Z" fill="#4DD9E5"/>
<path d="M123.737 52.884H134.348V58.3607H123.395V56.8204L123.566 55.4512L123.737 52.884Z" fill="#1D1D1D"/>
<path d="M40.0492 60.5854H41.4184V63.4949L40.7338 65.3775L39.5358 66.7467L38.3377 67.6024L37.3109 67.9447H34.9148L33.3745 67.2601L32.5188 66.0621L32.3477 65.5487V63.8372L32.8611 62.8103L34.0591 61.7835L35.2571 61.27L40.0492 60.5854Z" fill="#9ECFD3"/>
<path d="M139.482 0.171143H142.221V4.44978H142.049L141.878 5.6478L138.113 6.16124L134.348 7.01696L133.492 7.18811L133.663 1.71145V1.54031L134.348 1.19802L137.086 0.513434L139.482 0.171143Z" fill="#34929C"/>
<path d="M102.343 47.7495H108.333V48.6052L107.82 49.2898H107.477V52.8839L107.649 54.4242H107.82L107.649 56.6491L107.306 59.5586L106.964 60.4143L106.622 59.9008L106.793 57.5048H106.451L106.279 57.1625L106.108 55.4511V57.3337L105.766 57.5048L105.595 54.7665L105.937 52.3704H105.595V54.4242L105.424 55.2799V57.1625H105.081L104.91 58.0182L104.568 57.676L104.397 58.7028V59.9008L104.054 59.7297L103.883 58.0182L104.054 55.9645L103.541 56.1356L103.37 55.2799L103.199 56.1356L102.856 55.4511V53.9107L102.685 52.8839L102.514 53.9107H102.343L102.172 49.2898L102.343 47.7495Z" fill="#1E1E1E"/>
<path d="M141.024 11.1243H143.249L143.42 11.2954V16.6009L139.483 17.1144L136.232 17.9701L135.205 18.3124L135.034 14.0337L134.691 14.2049V13.6915H135.034L135.205 12.3223L138.457 11.4666L141.024 11.1243Z" fill="#34949E"/>
<path d="M133.154 1.54028H134.009L133.838 2.22487L133.667 7.01694L132.811 7.53038L130.244 8.55725L126.65 10.4398H126.479L126.308 5.13434L126.137 4.27861L130.073 2.56716L133.154 1.54028Z" fill="#28767E"/>
<path d="M104.741 35.9407H106.281L107.993 36.6253L109.019 37.8233L109.362 38.679V40.2193L108.677 41.5885L107.479 42.6153L106.623 42.9576H104.57L103.029 42.2731L102.174 41.2462L101.831 40.5616L101.66 39.3636L102.002 37.8233L103.029 36.6253L104.741 35.9407Z" fill="#1C1D1D"/>
<path d="M140.338 5.64771H147.355L151.463 6.33229L155.057 7.35916L157.624 8.38603L161.56 10.4398L163.956 12.1512L165.839 13.6915L167.55 15.2319H167.037L165.497 13.8627L162.929 11.9801L160.362 10.4398L156.768 8.72832L153.688 7.70145L149.922 6.84572L146.5 6.50343H142.392L138.113 7.01687L134.177 8.04374L131.439 9.07062L128.7 10.4398L126.304 11.8089L123.053 14.205L121.17 15.9164H120.314L117.062 12.6647L117.234 12.3224L120.143 15.2319L121.341 14.205L123.737 12.3224L126.133 10.6109L129.214 8.89947L131.781 7.70145L135.546 6.50343L138.969 5.81885L140.338 5.64771Z" fill="#C2C3C3"/>
<path d="M41.4171 63.6663H41.5883L41.4171 68.6295L39.8768 70.5121L38.3365 71.7101L36.2828 72.5658L35.427 72.737H33.8867V68.6295L34.0579 67.6026L34.9136 67.7738H37.3096L38.8499 67.0892L40.2191 65.8912L41.4171 63.6663Z" fill="#194A4F"/>
<path d="M98.0674 38.5078L98.752 38.679L98.5809 40.2193L94.9868 53.7398L91.2216 67.7737L90.0236 72.2235L89.1679 73.0792H82.6643L81.8086 72.2235H89.1679L89.8524 69.314L93.7888 54.5955L97.554 40.5616L98.0674 38.5078Z" fill="#C2C3C3"/>
<path d="M141.876 16.6011H145.813L149.064 17.1145L151.974 17.9702L155.568 19.6817L157.964 21.3931L159.847 23.1046L161.045 22.0777L163.783 19.3394L164.125 19.6817L163.954 20.5374L160.702 23.7892L159.847 23.618L158.135 22.0777L155.568 20.3663L152.316 18.826L149.236 17.9702L147.182 17.6279H141.876L138.282 18.3125L135.03 19.5105L132.292 21.0509L130.238 22.5912L128.869 23.7892L128.013 23.618L124.762 20.3663L124.933 20.024L127.842 22.9335L128.527 22.5912L130.581 20.8797L133.319 19.1683L135.373 18.1414L137.94 17.2857L140.336 16.7722L141.876 16.6011Z" fill="#C2C3C3"/>
<path d="M71.8826 37.8232H73.4229L73.5941 38.679V41.9307L73.7652 42.7865V46.2094H74.1075L74.2786 46.894L74.1075 50.1457L73.7652 49.6323L73.5941 47.2362L73.4229 49.29L73.2518 49.4611L73.0806 50.8303L72.7383 50.1457L72.5672 49.29L72.2249 49.1188L72.0537 45.0114L71.8826 47.4074V51.0014L72.0537 51.5149L71.5403 51.8572L71.0269 50.6592V47.2362L70.8557 46.0382H70.6846V45.1825L70.1711 45.3536L70 44.4979L71.8826 37.8232Z" fill="#0B0B0C"/>
<path d="M141.539 0H146.331L147.358 0.171145L147.529 4.27864H147.187V5.6478H141.881V3.59406H142.052L142.224 0.171145L141.539 0Z" fill="#39A8B4"/>
<path d="M145.475 35.0847L146.331 35.427L147.871 36.7962L148.727 38.1653L149.069 39.1922V40.9037L148.384 42.444L147.358 43.642L145.988 44.3266L145.475 44.4977H143.421L141.71 43.642L140.512 42.444L140.683 42.1017L141.881 43.1286L142.737 43.4708L144.277 43.642H145.304V37.9942L145.475 35.0847Z" fill="#3AABB7"/>
<path d="M142.221 22.0779H145.815L146.5 22.4202H146.842V27.8968L143.59 27.7257H141.879V22.249L142.221 22.0779Z" fill="#37A5B1"/>
<path d="M34.0594 47.5784L34.4017 47.7495L34.2306 48.263L34.5729 52.0282L31.1499 53.2262L28.7539 54.4242V49.461L30.8077 48.4341L34.0594 47.5784Z" fill="#216168"/>
<path d="M74.9622 46.0381H75.1333L75.4756 48.7764H75.1333L74.9622 50.3167L71.197 64.1795L68.9721 72.3945L68.6298 72.9079L68.1163 73.0791H61.4417L60.9282 72.9079L60.5859 72.2233L68.1163 72.0522L71.5392 59.3874L74.4487 48.6053L74.791 46.3804L74.9622 46.0381Z" fill="#C2C3C3"/>
<path d="M134.35 53.5686L134.863 53.7397V58.8741L134.35 59.2164L123.739 59.3876L123.568 59.5587L123.397 72.7369L122.712 73.0792H117.235L116.551 72.3946V72.2235H122.883V58.3607H134.35V53.5686Z" fill="#C2C3C3"/>
<path d="M21.3922 57.8472L22.0768 58.5317L22.9325 60.4144L23.2748 61.7835V65.2064L22.7614 67.2602L21.7345 69.1428L20.3653 70.6831L18.1404 72.0522L15.9155 72.908L13.1772 73.4214L9.7543 73.5926L6.67369 73.4214L3.25078 72.7368L1.02588 71.8811L0.683594 71.1965L2.39505 71.71L5.47567 72.3945L7.18712 72.5657H11.6369L14.8887 72.0522L17.2847 71.1965L19.1673 70.1696L20.5365 68.9716L21.7345 67.089L22.4191 64.8641V60.9278L21.7345 58.874L21.3922 57.8472Z" fill="#C2C3C3"/>
<path d="M89.8533 48.9475L90.1956 49.1187V52.8839H90.3667V49.1187H90.5379L90.709 51.1724L90.8802 59.7297H91.2224L91.0513 57.5048V53.9107L91.2224 53.055L91.3936 49.6321L91.907 49.4609V50.8301H91.7359V55.6222L91.907 56.9913L92.2493 56.8202L92.4205 60.4143L91.0513 65.5486L90.1956 64.864L90.0244 63.3237V55.6222L89.6821 56.9913H89.511L89.3398 53.055H89.8533V48.9475Z" fill="#313232"/>
<path d="M11.1265 37.3098H13.0091L13.1803 39.1924V40.7327L12.838 41.2462L12.6668 41.075V41.9307H12.838V42.7865L10.0996 43.2999L9.24391 43.4711L9.07276 41.9307L8.90161 41.5885L8.73047 37.6521L11.1265 37.3098Z" fill="#38A6B2"/>
<path d="M12.6651 66.9177H13.3497V72.3944L13.1785 72.5655L11.6382 72.7367H9.24219V67.4312L12.6651 66.9177Z" fill="#37A4B0"/>
<path d="M146.841 47.7495L147.183 48.4341L147.526 48.7764V72.5656L146.841 73.079H141.535L140.851 72.7368L140.68 72.2233H146.841V47.7495Z" fill="#C2C3C3"/>
<path d="M108.677 47.7495L109.019 48.4341L109.361 48.7764V72.5656L108.677 73.079H103.371L102.687 72.7368L102.516 72.2233H108.677V47.7495Z" fill="#C2C3C3"/>
<path d="M9.75391 50.6589L10.4385 50.8301L12.4922 51.857L12.6634 52.0281V59.2162L11.8077 58.8739L9.75391 57.847V50.6589Z" fill="#38A6B2"/>
<path d="M139.482 0.171143H142.221V4.44978H142.05L141.878 5.6478L138.456 5.99009L138.284 4.27863L138.113 0.342288L139.482 0.171143Z" fill="#34959F"/>
<path d="M155.913 27.2122H156.255L156.426 28.0679L153.003 31.4908H152.147L150.607 30.2928L148.553 29.2659L145.815 28.5813H143.077L140.338 29.2659L138.113 30.4639L136.744 31.4908L136.06 31.6619L134.69 30.4639L132.637 28.4102L132.808 28.0679L135.546 30.8062L136.402 30.4639L137.6 29.437L139.996 28.239L141.879 27.7256L143.59 27.5544H144.959L147.526 28.0679L150.265 29.437L151.805 30.6351H152.49L155.913 27.2122Z" fill="#C2C3C3"/>
<path d="M142.395 10.9534H145.646L146.673 11.1245L146.844 11.638L146.673 16.7723L143.421 16.6012L143.25 11.2957L142.395 11.1245V10.9534Z" fill="#3BADB9"/>
<path d="M135.376 38.5078H135.719L135.89 38.8501V43.6422L135.719 43.9845L135.205 44.1556L123.739 44.3268L123.567 44.4979L123.396 52.884H122.883V43.2999H135.376V38.5078Z" fill="#C2C3C3"/>
<path d="M46.3787 51.3435L46.8922 51.8569L47.5768 53.2261L48.0902 55.451L48.2613 57.1625V72.3944L47.5768 73.079H42.4424L41.7578 72.5655V72.2233H47.5768L47.4056 55.2799L46.8922 52.8838L46.3787 51.3435Z" fill="#C2C3C3"/>
<path d="M128.186 15.9165H128.357L128.529 16.7722V20.1951L128.871 20.7086V22.42L128.186 23.1046L127.502 22.7623L124.25 19.5106L124.592 18.826L126.646 16.9434L128.186 15.9165Z" fill="#216269"/>
<path d="M21.2207 38.8501L21.9053 39.7058V45.1825L21.563 45.5248L20.7073 45.3536L19.3381 44.669L17.1132 43.9845L16.0863 43.8133H11.8077L9.58281 44.4979L8.55593 45.1825L7.87135 46.3805V48.4342L8.0425 49.1188L7.35792 48.4342L7.01562 47.4074V45.8671L7.70021 44.4979L9.24052 43.471L10.6097 42.9576L11.6366 42.7864H15.2306L17.7978 43.2999L19.8515 44.1556L21.0496 44.8402L21.2207 38.8501Z" fill="#C2C3C3"/>
<path d="M134.693 12.4937H135.206L135.035 13.6917H134.693L134.864 14.034L135.206 13.8628V18.3126L132.468 19.8529H132.297V13.5205L134.693 12.4937Z" fill="#2A7C84"/>
<path d="M15.7437 62.8103H15.9148L16.086 64.1795L15.9148 71.1964L15.7437 71.881L14.2034 72.3945H13.3477V66.7466L14.7168 65.8909L15.4014 64.864L15.7437 62.8103Z" fill="#34949E"/>
<path d="M123.737 52.884H126.304L126.475 54.4243V58.3607H123.395V56.8204L123.566 55.4512L123.737 52.884Z" fill="#1E1E1E"/>
<path d="M141.023 11.1243H143.248L143.419 11.2954V16.6009L140.852 16.7721L141.023 11.1243Z" fill="#37A3AE"/>
<path d="M58.5312 38.3367L59.2158 39.0213L62.8099 54.4243L64.8636 63.3239L64.6925 65.2065H64.3502L63.8368 61.6125L60.2427 46.0382L58.5312 38.679V38.3367Z" fill="#C2C3C3"/>
<path d="M128.019 3.42285H128.362L128.533 6.50347L128.362 8.38607H128.019L128.19 9.58409L126.479 10.4398L126.308 5.13431L126.137 4.27858L128.019 3.42285Z" fill="#267179"/>
<path d="M141.367 35.9407L141.709 36.283V39.5347L141.88 37.481H142.052V41.075H141.88L141.709 42.9576L141.025 42.6153L139.998 41.4173L139.656 40.5616L139.484 39.0213L139.827 37.6521L140.169 36.9675L141.367 35.9407Z" fill="#34959F"/>
<path d="M41.2439 68.6294H41.415V72.2234H41.2439L41.0727 70.512L39.5324 72.0523L37.4787 73.0792L36.4518 73.4215H32.3443L30.2906 72.7369L28.9214 71.71L27.8945 70.6831L28.0657 70.3408L29.4348 71.5389L31.4886 72.3946L32.5155 72.5657H35.4249L37.6498 71.8812L39.019 71.0254L40.217 69.9986L41.2439 68.6294Z" fill="#C2C3C3"/>
<path d="M79.0664 38.5078L79.751 39.1924L83.8585 55.4512L85.9122 63.3239L85.7411 65.3777L85.3988 64.8642L84.7142 61.099L80.0933 42.7864L79.0664 38.8501V38.5078Z" fill="#C2C3C3"/>
<path d="M73.0784 37.8232L73.5918 37.9944V41.9307L73.763 42.7865V46.2094H74.1053L74.2764 46.894L74.1053 50.1457L73.763 49.6323L73.5918 47.2362L73.4207 49.29L73.2495 49.4611L73.0784 50.8303L72.7361 50.1457L72.5649 49.29L72.2227 49.1188V43.471H72.3938L72.5649 45.3536V47.9208L72.7361 48.092L72.9072 39.1924L73.0784 37.8232Z" fill="#0A0A0A"/>
<path d="M77.3594 37.8232H78.8997L79.4131 39.5347L79.242 41.4173L78.8997 43.8133H78.7285L78.5574 42.273V45.0114L78.044 46.5517H77.8728L77.5305 43.6422L77.3594 37.9944V37.8232Z" fill="#0B0B0B"/>
<path d="M40.0492 60.5854H41.4184V61.4412L36.1129 62.1258L34.4014 62.8103L33.3745 64.0084L33.2034 64.3507V66.9178L32.5188 66.0621L32.3477 65.5487V63.8372L32.8611 62.8103L34.0591 61.7835L35.2571 61.27L40.0492 60.5854Z" fill="#C2C3C3"/>
<path d="M35.4254 51.8572H37.8214L39.5329 52.3706L40.7309 53.3975L40.5598 53.7398L38.8483 52.8841H35.2543L32.6871 53.5686L30.291 54.7667L29.4353 55.1089L29.093 54.9378L28.9219 54.2532L31.4891 52.8841L34.2274 52.0283L35.4254 51.8572Z" fill="#C2C3C3"/>
<path d="M21.2227 58.0183L21.7361 58.5317L22.4207 60.2432L22.5918 60.9278V64.8641L21.9072 67.089L21.3938 67.9447L21.2227 67.4313V58.0183Z" fill="#28767F"/>
<path d="M134.52 24.8162H135.034V30.1217L134.349 29.7794L131.953 27.3833L132.295 26.6988L133.836 25.3296L134.52 24.8162Z" fill="#34949E"/>
<path d="M160.877 16.7722L161.904 17.4568L163.787 19.1683L163.445 19.8528L160.877 22.42H160.535V18.826L160.877 18.9971L161.049 19.5105L161.22 18.3125H160.877V16.7722Z" fill="#4CD6E2"/>
<path d="M132.808 52.884H134.348V58.3607H132.637V53.9109L132.808 52.884Z" fill="#202020"/>
<path d="M147.871 37.1387L148.556 37.8233L149.069 39.1924V40.9039L148.384 42.4442L147.358 43.6422L145.988 44.3268L145.475 44.4979H143.421L141.71 43.6422L140.512 42.4442L140.683 42.1019L141.881 43.1288L142.737 43.4711L144.277 43.6422L145.817 43.2999L147.186 42.273L148.042 40.9039L148.384 39.1924L148.042 37.6521L147.871 37.1387Z" fill="#C1C2C3"/>
<path d="M147.526 36.6252L147.868 36.7964L148.382 38.1656L148.553 39.5347L148.04 41.2462L147.355 42.273L146.67 42.9576H146.328V38.1656L146.67 37.1387H146.842V38.1656L147.355 38.3367L147.526 36.6252Z" fill="#3FB5C2"/>
<path d="M13.0056 37.3098H14.8882V39.1924L14.5459 38.8501L14.7171 37.481H14.3748V41.2462L14.2036 42.7865H12.8345L12.4922 42.1019V40.9039L12.8345 41.075L13.0056 40.7327V37.3098Z" fill="#3497A1"/>
<path d="M143.594 11.1243H145.134V13.178L144.963 16.6009H143.594V11.1243Z" fill="#36A3AF"/>
<path d="M89.8511 55.1089L90.1934 55.6223V63.495L90.3645 65.5488L90.0222 65.7199L89.6799 64.8642L89.5088 62.4681L89.1665 61.9547L88.8242 61.2701L88.9954 60.9278V56.4781L89.5088 55.9646L89.6799 56.1358L89.8511 55.1089Z" fill="#202020"/>
<path d="M75.1321 37.8232H76.8435L77.0147 38.5078V40.0481L76.8435 41.4173L76.5012 40.9039H76.159L75.9878 40.3904V43.471H75.4744H75.1321L74.9609 42.7865L75.1321 37.8232Z" fill="#0A0A0A"/>
<path d="M118.775 9.24194H119.117V14.2052L117.919 13.1783L116.379 11.638L117.406 10.44L118.775 9.24194Z" fill="#19494E"/>
<path d="M109.021 37.8232L109.535 38.3367L109.877 39.0213V41.2462L109.021 42.6153L107.823 43.471L107.31 43.6422H104.743L103.374 42.9576L103.031 42.273L104.572 42.7865H106.625L107.994 42.1019L108.85 41.075L109.192 40.2193V38.679L109.021 37.8232Z" fill="#C2C3C3"/>
<path d="M142.221 0.171143H143.419V5.47665L143.248 5.6478H141.879V3.59405H142.05L142.221 0.171143Z" fill="#36A1AC"/>
<path d="M141.88 35.2561H142.565V43.4711L141.538 43.1288L141.709 40.3905V40.2193L141.538 39.5347V36.283H141.196L140.34 36.9676L140.682 36.283L141.88 35.2561Z" fill="#369CA7"/>
<path d="M145.647 22.249L146.845 22.4202V27.8968L145.476 27.7257L145.305 25.5008L145.647 22.249Z" fill="#37A6B2"/>
<path d="M41.9275 63.4949L42.2698 64.1795V69.6561L42.0986 72.2233H41.4141V65.3775L41.5852 63.666L41.9275 63.4949Z" fill="#13373B"/>
<path d="M81.8064 61.0989H81.9776L82.1487 64.8641L82.491 65.0352L82.6621 68.9716V71.0253L82.8333 69.9984H83.0044V72.2233H81.6353L81.293 71.0253L81.4641 69.6562H81.6353L81.8064 70.5119L81.9776 69.9984V67.7736H81.8064L81.6353 64.1795V61.9546L81.8064 61.0989Z" fill="#313232"/>
<path d="M72.2227 37.8232H73.0784V40.7327L72.9072 48.092L72.5649 48.2631L72.3938 47.0651V45.3536L72.2227 43.471V37.8232Z" fill="#1B1B1B"/>
<path d="M2.39453 53.3975L3.59255 54.4243L5.98859 55.9646L10.2672 58.0184L13.0056 59.3876L14.5459 60.5856L15.0593 61.099L14.8882 61.4413L13.519 60.4144L9.92493 58.5318L7.18661 57.3338L4.44828 55.6224L2.39453 53.7398V53.3975Z" fill="#C2C3C3"/>
<path d="M87.6253 66.0623H87.7964L88.1387 71.0255L88.3098 69.6563V68.2871L88.6521 67.6026V69.9986L88.481 72.2235H87.1118L86.9407 70.3409L86.7695 69.1429L86.9407 68.8006L87.1118 66.918L87.4541 67.4314L87.6253 66.0623Z" fill="#1D1D1D"/>
<path d="M142.565 22.249H143.25L143.421 23.9605V27.5545L142.223 27.7257V23.2759L142.565 22.249Z" fill="#34959F"/>
<path d="M142.395 11.1243H143.25L143.421 11.2954V16.6009H142.395V11.1243Z" fill="#34949E"/>
<path d="M131.784 52.884H132.811L132.64 58.3607L131.784 58.1895L131.613 56.9915V53.9109L131.784 52.884Z" fill="#2F2F2F"/>
<path d="M171.487 11.6379L172.001 11.8091V12.6648L168.749 15.9166H167.893L167.551 15.4031H168.064L168.407 14.7186L171.487 11.6379Z" fill="#C2C3C3"/>
<path d="M133.663 1.36914H134.519L134.69 4.44976V6.8458L133.492 7.18809L133.663 1.71143V1.54029V1.36914Z" fill="#2F8992"/>
<path d="M13.8611 66.4045H14.2034V72.3946H13.3477V66.7468L13.8611 66.4045Z" fill="#359DA8"/>
<path d="M92.593 50.1458H92.9353L93.1065 52.8841V55.109L92.9353 56.1358H93.4487L92.7642 59.0453L92.4219 59.7299V53.911L92.593 51.3438V50.1458Z" fill="#303435"/>
<path d="M127.333 53.9106L127.675 54.2529L127.846 57.1624L128.36 57.5047L128.702 56.8201L129.044 58.3604H126.82L126.648 57.6758V55.6221L126.991 55.2798H127.162L127.333 53.9106Z" fill="#323232"/>
<path d="M27.3823 61.0989H27.5535L27.7246 63.4949L27.5535 64.3506L27.3823 67.4313H27.2112L26.8689 65.7198V64.3506H26.5266V67.089H26.3555V63.6661L26.8689 61.9546L27.3823 61.0989Z" fill="#27747C"/>
<path d="M108.335 47.7495H108.678V50.3167L108.335 50.4878L108.164 52.1993H107.822L107.993 54.253L107.48 54.9376L107.309 52.3704L107.48 49.2898L107.822 49.1187L107.993 48.2629L108.335 47.7495Z" fill="#323232"/>
<path d="M69.1423 48.2629H69.3135L69.8269 49.8032V52.7127H69.3135L68.9712 55.4511H68.8001L68.6289 53.3973L68.8001 53.055V48.7764L69.1423 48.2629Z" fill="#0A0A0A"/>
<path d="M42.1047 54.7666H42.447L42.6182 57.1626L42.7893 57.5049V59.2164L42.2759 60.2433L42.1047 63.3239H41.9336V54.9377L42.1047 54.7666Z" fill="#164146"/>
<path d="M128.189 15.9165H128.36L128.532 16.7722V20.1951L128.874 20.7086V22.42L128.189 22.7623V22.42H127.847V17.628L127.676 17.2857V16.2588L128.189 15.9165Z" fill="#216168"/>
<path d="M125.449 52.884H126.305L126.476 54.4243V58.3607H125.963L125.792 55.6224L125.449 55.9647V52.884Z" fill="#303030"/>
<path d="M133.493 25.6719H133.836V28.9236L133.151 28.5813L131.953 27.3833L132.295 26.6987L133.493 25.6719Z" fill="#2E858E"/>
<path d="M88.6516 53.7397L89.1651 54.4243L89.3362 54.5955V56.1358L89.1651 56.4781V60.9279L88.6516 61.4413L88.4805 58.1895L88.6516 53.7397Z" fill="#323232"/>
<path d="M135.033 12.4937H135.204L135.033 13.6917H134.691L134.862 14.034L135.204 13.8628V18.3126L134.52 18.4837V13.0071L135.033 12.4937Z" fill="#28767E"/>
<path d="M142.395 10.9534H145.646L145.304 11.1245L145.475 14.7186L145.646 14.8897V16.2589L145.475 16.6012H144.962V13.1783L145.133 11.1245H143.593V16.6012H143.421L143.25 11.2957L142.395 11.1245V10.9534Z" fill="#56BCC7"/>
<path d="M79.4102 42.6152L80.2659 42.7864V45.3536H80.0947L79.9236 44.8401L80.0947 45.5247V48.0919L79.7524 48.4342V47.5785H79.4102V42.6152Z" fill="#0A0B0B"/>
<path d="M91.7346 37.9944H91.9058L92.0769 40.0481L91.7346 40.2193L91.5635 44.6691L91.0501 44.8402L90.8789 44.1556L91.0501 42.7865V40.0481L91.5635 38.1655L91.7346 37.9944Z" fill="#0B0C0C"/>
<path d="M127.335 16.4299H127.677L128.02 17.628V21.9066L127.849 22.42H128.191L128.362 22.9335H127.677L127.506 22.7623V18.9971L127.164 19.5106L127.335 16.4299Z" fill="#28757D"/>
<path d="M13.6914 37.3098H14.8894V39.1924L14.5471 38.8501L14.7183 37.481H14.376V41.2462L14.2048 42.7865H14.0337V41.2462H13.6914V37.3098Z" fill="#36A2AD"/>
<path d="M134.69 12.4937L135.032 12.6648L134.69 13.0071V18.6549L134.006 18.4837V13.6917L133.834 13.1782L133.492 13.0071L134.69 12.4937Z" fill="#36959F"/>
<path d="M15.7446 62.8103H15.9158L16.0869 64.1795L15.9158 71.1964L15.7446 71.881H15.4023L15.5735 64.3506L15.7446 62.8103Z" fill="#37A4B0"/>
<path d="M89.1665 60.7566L90.0222 60.9277L90.1934 61.4412V63.4949L90.3645 65.5487L90.0222 65.7198L89.6799 64.8641L89.5088 62.468L89.1665 61.9546L88.8242 61.27L89.1665 60.7566Z" fill="#1D1D1D"/>
<path d="M108.162 49.9746L108.675 50.3169V55.109H108.504L108.333 53.911L108.162 54.4244L107.82 54.2532L107.648 52.1995L107.991 52.0284L108.162 49.9746Z" fill="#1D1D1D"/>
<path d="M0.513437 43.8132H0.684582V46.7227L0.513437 49.9745L0.171146 49.461L0 48.7765V45.6958L0.513437 43.8132Z" fill="#4CCDD9"/>
<path d="M94.3008 37.8232H95.4988V38.8501H95.1565L95.3277 40.0481L94.9854 40.9039L94.3008 40.5616V37.8232Z" fill="#0C0C0C"/>
<path d="M126.991 4.10742H127.162V10.0975L126.648 10.2687V5.99002L126.82 4.27857L126.991 4.10742Z" fill="#216168"/>
<path d="M141.539 11.2957H142.052V16.43L141.539 16.6012V11.2957Z" fill="#34949E"/>
<path d="M70.5142 49.9746H70.6853L71.0276 55.2801L70.6853 55.109L70.5142 54.2532H70.1719V50.6592L70.5142 49.9746Z" fill="#0A0A0A"/>
<path d="M8.73047 37.6521H9.41505V43.471H9.24391L9.07276 41.9307L8.90161 41.5884L8.73047 37.6521Z" fill="#37A4B0"/>
<path d="M123.737 52.884L124.079 53.0552V58.3607H123.395V56.8204L123.566 55.4512L123.737 52.884Z" fill="#323232"/>
<path d="M144.961 22.0779H145.817L145.474 25.6719V27.7257L144.961 27.5545V22.0779Z" fill="#3FB8C5"/>
<path d="M79.7532 63.1528L80.2666 63.6663L80.6089 63.8374V67.0892H80.2666L79.582 64.3509L79.7532 63.1528Z" fill="#313434"/>
<path d="M84.0305 68.9717H84.3728L84.7151 69.8274L84.544 72.2234H83.8594V69.1428L84.0305 68.9717Z" fill="#323232"/>
<path d="M20.1946 58.3606H20.8792H21.0503V60.2432H20.3657V60.9278L20.8792 61.0989V61.4412H20.5369L20.3657 61.9547L20.1946 61.6124L20.0234 59.2163L20.1946 58.3606Z" fill="#28757D"/>
<path d="M147.699 37.1387L148.213 37.6521L148.555 39.5347L148.042 41.2462L147.699 41.5885V40.0481L147.87 39.877L147.699 37.1387Z" fill="#37A4B0"/>
<path d="M145.305 11.1243H145.647L145.818 12.8357V16.6009H145.476V14.8895L145.305 14.7183V11.1243Z" fill="#37A4B0"/>
<path d="M9.41406 50.3167L9.9275 50.4878L9.75635 56.1356L9.41406 55.9645V50.3167Z" fill="#40B6C3"/>
<path d="M142.738 67.4314H142.909L143.08 69.4851V72.0523L142.738 72.2235L142.566 71.71V67.9448L142.738 67.4314Z" fill="#323232"/>
<path d="M134.862 24.8162H135.033V30.1217L134.52 29.9505V25.1585L134.862 24.8162Z" fill="#28757E"/>
<path d="M142.221 22.0779H143.762L143.419 22.7625L143.248 22.249L142.563 22.4202L142.392 23.2759L142.221 27.7257L141.879 27.5545V22.249L142.221 22.0779Z" fill="#39A9B5"/>
<path d="M8.38599 49.8035L8.72828 49.9746L8.89943 50.3169V54.4244L8.38599 54.9378L8.21484 53.911L8.38599 52.5418H8.72828L8.55713 50.6592H8.38599V49.8035Z" fill="#37A4B0"/>
<path d="M104.059 47.7495H104.914L104.743 49.6321H104.572L104.401 51.5147H104.23L104.059 50.4878V47.7495Z" fill="#2E2E2E"/>
<path d="M138.113 0.342285H138.969L138.627 0.513431L138.798 4.27863L138.627 5.99009H138.456L138.284 4.27863L138.113 0.342285Z" fill="#3CA6B2"/>
<path d="M128.016 3.42285H128.358L128.529 6.50347L128.358 8.38607L128.016 8.21493V3.42285Z" fill="#216168"/>
<path d="M143.249 12.4937H143.42V16.6011H142.906V13.1782L143.249 12.4937Z" fill="#36A2AE"/>
<path d="M145.132 13.1782H145.303L145.474 14.7185L145.646 14.8897V16.2588L145.474 16.6011H144.961V13.3494L145.132 13.1782Z" fill="#3FB6C3"/>
<path d="M132.809 26.1853L133.151 26.5276L133.322 27.7256L132.98 28.4102L131.953 27.3833L132.295 26.6987L132.809 26.1853Z" fill="#2F8891"/>
<path d="M87.1126 57.5049L87.4548 58.0183L87.7971 57.5049L87.626 61.6124L87.2837 61.4412L87.1126 58.874L86.9414 58.1895L87.1126 57.5049Z" fill="#313434"/>
<path d="M126.65 4.10742H126.821L126.65 10.4398H126.479L126.308 5.13429L126.137 4.27857L126.65 4.10742Z" fill="#28757D"/>
<path d="M159.339 3.25171L160.024 3.594L159.853 6.67462L159.51 7.01691V5.30545H159.168V4.27858H159.51L159.339 3.25171Z" fill="#4EDAE6"/>
<path d="M143.936 69.8271L144.278 69.9983L144.449 70.5117V72.2232H143.594V71.1963L143.936 69.8271Z" fill="#323232"/>
<path d="M107.136 36.4539H107.478L107.649 36.7961V38.5076L107.136 40.0479H106.965L107.136 36.4539Z" fill="#0A0A0A"/>
<path d="M62.4648 56.8203H62.8071L63.1494 57.8472L62.9783 60.4144L62.636 59.9009L62.4648 56.8203Z" fill="#0D1111"/>
<path d="M58.1868 60.5854L58.5291 61.0989V64.6929L58.1868 64.1795L58.0156 63.1526L58.1868 60.5854Z" fill="#1E2122"/>
<path d="M141.71 40.3904L142.224 40.9038V43.2999L141.539 42.9576L141.71 40.3904Z" fill="#36A2AD"/>
<path d="M78.5547 37.8232H78.897L79.4104 39.5347V40.0481H79.0681L78.897 40.5616L78.7258 39.7058H78.5547V37.8232Z" fill="#1D2121"/>
<path d="M41.7564 68.4583H41.9275V72.2235H41.4141V70.3409H41.5852L41.7564 68.4583Z" fill="#174348"/>
<path d="M103.374 51.0015H103.545L103.716 52.8841L103.374 53.0552L103.031 53.7398V51.1726L103.374 51.0015Z" fill="#313131"/>
<path d="M132.98 37.8232H134.007V38.8501L133.152 39.1924L132.98 39.0213V37.8232Z" fill="#0A0A0A"/>
<path d="M10.7844 67.2603H11.6402L11.1267 67.4314V71.1966H10.9556L10.7844 68.6294L10.6133 68.4583V67.4314L10.7844 67.2603Z" fill="#45B7C3"/>
<path d="M130.926 37.8232H131.439V40.5616L131.097 40.7327L130.926 39.877V37.8232Z" fill="#0A0A0A"/>
<path d="M141.366 1.198H141.537V5.64778H141.366L141.195 4.62091H141.023V3.42289L141.195 3.25174L141.366 1.198Z" fill="#37A4B0"/>
<path d="M156.426 2.05371L157.11 2.22486L156.939 4.96318H156.597L156.426 2.05371Z" fill="#4EDAE6"/>
<path d="M125.446 56.3069L125.789 56.9915V58.3606H124.762L124.933 57.3338H125.275L125.446 56.3069Z" fill="#323232"/>
<path d="M85.9141 68.4583H86.0852L86.2564 70.8543H86.4275V72.2235H85.9141V68.4583Z" fill="#1D1D1D"/>
<path d="M129.215 37.8232H129.728V39.7058L129.386 40.3904H129.215V37.8232Z" fill="#0A0A0A"/>
<path d="M61.9563 64.8643L62.2986 65.0354L62.4697 65.72V67.0891L62.1274 67.2603V66.7469L61.7852 66.5757L61.9563 64.8643Z" fill="#0A0A0A"/>
<path d="M106.964 53.0549H107.135L107.306 53.9107V55.9644H106.964L106.793 53.3972L106.964 53.0549Z" fill="#323232"/>
<path d="M74.2766 46.8938H74.4478L74.6189 48.6053L74.2766 49.9744H74.1055V47.0649L74.2766 46.8938Z" fill="#202B2D"/>
<path d="M120.484 61.0989H120.656L120.998 62.8103V64.0084L120.827 64.8641H120.656L120.484 62.9815V61.0989Z" fill="#1D1D1D"/>
<path d="M107.991 57.1626H108.162V59.2163L107.82 60.4144H107.648V58.7029L107.991 57.1626Z" fill="#1D1D1D"/>
<path d="M105.596 52.3706H105.938V53.7398L105.596 55.4512L105.254 55.1089L105.425 53.5686L105.596 52.3706Z" fill="#323232"/>
<path d="M13.8626 52.5417L14.2048 53.2263V55.4512H13.8626L13.6914 53.5686L13.8626 52.5417Z" fill="#37A4B0"/>
<path d="M85.7415 64.5217H85.9126V65.3775L86.2549 65.5486L86.0837 66.9178L85.5703 66.7466L85.7415 64.5217Z" fill="#1D1D1D"/>
<path d="M142.223 64.5217L142.565 64.6929L142.907 66.7466H142.394L142.223 64.5217Z" fill="#323232"/>
<path d="M129.726 55.1089H129.897L130.068 57.5049L130.239 57.8472L130.068 58.3607H129.726L129.555 55.4512L129.726 55.1089Z" fill="#323232"/>
<path d="M108.502 37.4807H108.674V40.219L108.16 40.0479L108.331 38.3364L108.502 37.4807Z" fill="#0A0A0A"/>
<path d="M147.699 37.1387L148.213 37.6521L148.384 39.1924L148.042 39.7059L147.699 38.1655V37.1387Z" fill="#3AACB8"/>
<path d="M63.1523 59.9009L63.6658 60.072V61.6123L63.3235 61.7835L63.1523 61.4412V59.9009Z" fill="#0D0F10"/>
<path d="M8.55786 55.28L8.90016 55.9646V57.3338H8.38672V55.7935L8.55786 55.28Z" fill="#37A4B0"/>
<path d="M92.4219 42.1018L92.9353 42.6152V44.3267H92.4219V42.1018Z" fill="#0A0A0A"/>
<path d="M62.2961 54.9375L62.6384 55.6221L62.8096 56.8201L62.4673 56.9912L62.2961 58.0181H62.125L62.2961 54.9375Z" fill="#182122"/>
<path d="M132.808 26.1853L133.15 26.5276L133.321 27.7256L132.979 28.4102L132.637 27.8968L132.808 26.1853Z" fill="#34949E"/>
<path d="M93.7876 52.3706H93.9587L94.1299 54.0821L93.7876 55.2801L93.4453 54.5955L93.7876 52.3706Z" fill="#303B3D"/>
<path d="M92.5898 37.8232H93.2744V39.3636L92.9321 39.1924V38.679H92.5898V37.8232Z" fill="#0A0A0A"/>
<path d="M144.277 66.0623H144.619V68.116H144.277L144.105 66.7468L144.277 66.0623Z" fill="#323232"/>
<path d="M62.468 62.6392H62.8103L62.9815 64.0083L62.468 64.5218L62.2969 64.1795L62.468 62.6392Z" fill="#0A0A0A"/>
<path d="M133.323 26.0142H133.494V28.5813H133.152V27.041L132.98 26.3565L133.323 26.0142Z" fill="#28767E"/>
</svg>
